<svg width="19" height="17" viewBox="0 0 19 17" fill="none" xmlns="http://www.w3.org/2000/svg">
<path d="M12.4925 13L14.6575 16.75H13.215L11.05 13H7.9575L5.7925 16.75H4.35L6.515 13H2.625C2.45924 13 2.30027 12.9342 2.18306 12.8169C2.06585 12.6997 2 12.5408 2 12.375V1.75H0.75C0.58424 1.75 0.425268 1.68415 0.308058 1.56694C0.190848 1.44973 0.125 1.29076 0.125 1.125C0.125 0.95924 0.190848 0.800269 0.308058 0.683058C0.425268 0.565848 0.58424 0.5 0.75 0.5H18.25C18.4158 0.5 18.5747 0.565848 18.6919 0.683058C18.8092 0.800269 18.875 0.95924 18.875 1.125C18.875 1.29076 18.8092 1.44973 18.6919 1.56694C18.5747 1.68415 18.4158 1.75 18.25 1.75H17V12.375C17 12.5408 16.9342 12.6997 16.8169 12.8169C16.6997 12.9342 16.5408 13 16.375 13H12.4925ZM15.75 1.75H3.25V11.75H15.75V1.75ZM6.375 6.75C6.54076 6.75 6.69973 6.81585 6.81694 6.93306C6.93415 7.05027 7 7.20924 7 7.375V8.625C7 8.79076 6.93415 8.94973 6.81694 9.06694C6.69973 9.18415 6.54076 9.25 6.375 9.25C6.20924 9.25 6.05027 9.18415 5.93306 9.06694C5.81585 8.94973 5.75 8.79076 5.75 8.625V7.375C5.75 7.20924 5.81585 7.05027 5.93306 6.93306C6.05027 6.81585 6.20924 6.75 6.375 6.75ZM9.5 5.5C9.66576 5.5 9.82473 5.56585 9.94194 5.68306C10.0592 5.80027 10.125 5.95924 10.125 6.125V8.625C10.125 8.79076 10.0592 8.94973 9.94194 9.06694C9.82473 9.18415 9.66576 9.25 9.5 9.25C9.33424 9.25 9.17527 9.18415 9.05806 9.06694C8.94085 8.94973 8.875 8.79076 8.875 8.625V6.125C8.875 5.95924 8.94085 5.80027 9.05806 5.68306C9.17527 5.56585 9.33424 5.5 9.5 5.5ZM12.625 4.25C12.7908 4.25 12.9497 4.31585 13.0669 4.43306C13.1842 4.55027 13.25 4.70924 13.25 4.875V8.625C13.25 8.79076 13.1842 8.94973 13.0669 9.06694C12.9497 9.18415 12.7908 9.25 12.625 9.25C12.4592 9.25 12.3003 9.18415 12.1831 9.06694C12.0658 8.94973 12 8.79076 12 8.625V4.875C12 4.70924 12.0658 4.55027 12.1831 4.43306C12.3003 4.31585 12.4592 4.25 12.625 4.25Z" fill="white"/>
</svg>
