<svg width="16" height="19" viewBox="0 0 16 19" fill="none"
    xmlns="http://www.w3.org/2000/svg">
    <path fill-rule="evenodd" clipRule="evenodd" d="M7.9854 0.754639C6.96759 0.754639 5.99147 1.15896 5.27177 1.87866C4.55208 2.59835 4.14776 3.57447 4.14776 4.59228C4.14776 5.61008 4.55208 6.5862 5.27177 7.3059C5.99147 8.02559 6.96759 8.42992 7.9854 8.42992C9.0032 8.42992 9.97932 8.02559 10.699 7.3059C11.4187 6.5862 11.823 5.61008 11.823 4.59228C11.823 3.57447 11.4187 2.59835 10.699 1.87866C9.97932 1.15896 9.0032 0.754639 7.9854 0.754639ZM5.35964 4.59228C5.35964 3.89588 5.63628 3.22801 6.12871 2.73559C6.62113 2.24317 7.289 1.96652 7.9854 1.96652C8.68179 1.96652 9.34966 2.24317 9.84208 2.73559C10.3345 3.22801 10.6111 3.89588 10.6111 4.59228C10.6111 5.28867 10.3345 5.95654 9.84208 6.44896C9.34966 6.94139 8.68179 7.21803 7.9854 7.21803C7.289 7.21803 6.62113 6.94139 6.12871 6.44896C5.63628 5.95654 5.35964 5.28867 5.35964 4.59228ZM7.9854 9.6418C6.11667 9.6418 4.39417 10.0668 3.11846 10.7842C1.86133 11.4919 0.916061 12.5633 0.916061 13.8834V13.9658C0.915253 14.9046 0.914445 16.0826 1.94778 16.9244C2.45596 17.3381 3.16774 17.633 4.12917 17.8269C5.09222 18.0224 6.34854 18.125 7.9854 18.125C9.62225 18.125 10.8778 18.0224 11.8424 17.8269C12.8039 17.633 13.5148 17.3381 14.0238 16.9244C15.0572 16.0826 15.0555 14.9046 15.0547 13.9658V13.8834C15.0547 12.5633 14.1095 11.4919 12.8531 10.7842C11.5766 10.0668 9.85493 9.6418 7.9854 9.6418ZM2.12795 13.8834C2.12795 13.1959 2.63048 12.4493 3.71229 11.841C4.77551 11.2431 6.28472 10.8537 7.9862 10.8537C9.68608 10.8537 11.1953 11.2431 12.2585 11.841C13.3411 12.4493 13.8428 13.1959 13.8428 13.8834C13.8428 14.9402 13.8105 15.5348 13.2579 15.984C12.959 16.228 12.4581 16.4663 11.6017 16.6392C10.7477 16.8121 9.58024 16.9131 7.9854 16.9131C6.39055 16.9131 5.2223 16.8121 4.36913 16.6392C3.51273 16.4663 3.01182 16.228 2.71288 15.9848C2.16026 15.5348 2.12795 14.9402 2.12795 13.8834Z" fill="#ABADBA"/>
</svg>
