<svg width="17" height="18" viewBox="0 0 17 18" fill="none"
    xmlns="http://www.w3.org/2000/svg">
    <path fill-rule="evenodd" clipRule="evenodd" d="M0.666992 0.166626C0.943135 0.166626 1.16699 0.390484 1.16699 0.666626V14.9523C1.16699 15.4536 1.36323 15.9328 1.71021 16.285C2.05693 16.637 2.5256 16.8333 3.01267 16.8333H16.5003C16.7765 16.8333 17.0003 17.0572 17.0003 17.3333C17.0003 17.6094 16.7765 17.8333 16.5003 17.8333H3.01267C2.25552 17.8333 1.53092 17.5279 0.997844 16.9868C0.465019 16.446 0.166992 15.714 0.166992 14.9523V0.666626C0.166992 0.390484 0.39085 0.166626 0.666992 0.166626ZM13.5682 2.54758C13.8444 2.54758 14.0682 2.77144 14.0682 3.04758V13.7619C14.0682 14.038 13.8444 14.2619 13.5682 14.2619C13.2921 14.2619 13.0682 14.038 13.0682 13.7619V3.04758C13.0682 2.77144 13.2921 2.54758 13.5682 2.54758ZM8.87687 6.11901C9.15301 6.11901 9.37687 6.34286 9.37687 6.61901V13.7619C9.37687 14.038 9.15301 14.2619 8.87687 14.2619C8.60073 14.2619 8.37687 14.038 8.37687 13.7619V6.61901C8.37687 6.34286 8.60073 6.11901 8.87687 6.11901ZM4.18551 9.69044C4.46165 9.69044 4.68551 9.91429 4.68551 10.1904V13.7619C4.68551 14.038 4.46165 14.2619 4.18551 14.2619C3.90937 14.2619 3.68551 14.038 3.68551 13.7619V10.1904C3.68551 9.91429 3.90937 9.69044 4.18551 9.69044Z" fill="white"/>
</svg>
