<svg width="16" height="16" viewBox="0 0 16 16" fill="none" xmlns="http://www.w3.org/2000/svg">
<path d="M10.875 3.375V2.875V2.75C10.875 2.54261 10.7074 2.375 10.5 2.375H10.375H9.875H5.625H5.5C5.29261 2.375 5.125 2.54261 5.125 2.75V2.875V3.5H5V2.75C5 2.47458 5.22458 2.25 5.5 2.25H10.5C10.7754 2.25 11 2.47458 11 2.75V3.5H10.875V3.375ZM5.625 4.5H6.125H9.875H10.375H11.5H12H13.5V4.625H12.9312H12.4543L12.4318 5.10141L12.0459 13.2733L12.0459 13.2735C12.0399 13.4009 11.9872 13.5149 11.9047 13.5995L11.926 13.1486L12.3041 5.14861L12.3289 4.625H11.8047H4.19531H3.67112L3.69587 5.14861L4.074 13.1486L4.09525 13.5982C4.01293 13.5136 3.96007 13.3998 3.95414 13.2734L3.95413 13.2733L3.56819 5.10141L3.54569 4.625H3.06875H2.5V4.5H4H4.5H5.625ZM11.4266 13.625H11.8779C11.7897 13.703 11.6737 13.75 11.5469 13.75H4.45312C4.32738 13.75 4.21168 13.7029 4.12336 13.625H4.57344H11.4266Z" fill="white" stroke="white"/>
</svg>
