<svg width="25" height="24" viewBox="0 0 25 24" fill="none" xmlns="http://www.w3.org/2000/svg">
<g id="icon/outlined/application/global">
<path id="Vector" d="M20.525 18.7711C20.5297 18.7641 20.5367 18.757 20.5414 18.75C22.0766 16.9242 23 14.5711 23 12C23 9.42891 22.0766 7.07578 20.5438 5.25C20.5391 5.24297 20.532 5.23828 20.5273 5.23125C20.5016 5.20078 20.4781 5.17266 20.4523 5.14453C20.443 5.13281 20.4336 5.12344 20.4242 5.11172L20.3281 5.00156L20.3258 4.99922C20.2906 4.95938 20.2531 4.91953 20.218 4.87969L20.2156 4.87734C20.1406 4.79766 20.0656 4.71797 19.9883 4.64062L19.9859 4.63828L19.8734 4.52578L19.8664 4.51875C19.8312 4.48359 19.7961 4.45078 19.7609 4.41797C19.7492 4.40625 19.7375 4.39453 19.7234 4.38281C19.7 4.35938 19.6766 4.33828 19.6531 4.31719C19.6461 4.31016 19.6367 4.30312 19.6297 4.29375C17.7594 2.55937 15.2539 1.5 12.5 1.5C9.74609 1.5 7.24062 2.55937 5.36797 4.29375C5.36094 4.30078 5.35156 4.30781 5.34453 4.31719C5.32109 4.33828 5.29766 4.36172 5.27422 4.38516C5.2625 4.39688 5.25078 4.40859 5.23672 4.42031C5.20156 4.45313 5.16641 4.48828 5.13125 4.52109L5.12422 4.52812L5.01172 4.64062L5.00937 4.64297C4.93203 4.72031 4.85703 4.8 4.78203 4.87969L4.77969 4.88203C4.74219 4.92188 4.70703 4.96172 4.67188 5.00156L4.66953 5.00391C4.63672 5.03906 4.60391 5.07656 4.57344 5.11406C4.56406 5.12578 4.55469 5.13516 4.54531 5.14688C4.51953 5.175 4.49609 5.20547 4.47031 5.23359C4.46562 5.24063 4.45859 5.24531 4.45391 5.25234C2.92344 7.07578 2 9.42891 2 12C2 14.5711 2.92344 16.9242 4.45625 18.75C4.46094 18.757 4.46797 18.7641 4.47266 18.7711L4.54531 18.8578C4.55469 18.8695 4.56406 18.8789 4.57344 18.8906L4.66953 19.0008C4.66953 19.0031 4.67188 19.0031 4.67188 19.0055C4.70703 19.0453 4.74219 19.0852 4.77969 19.1227L4.78203 19.125C4.85703 19.2047 4.93203 19.2844 5.00703 19.3617L5.00937 19.3641C5.04687 19.4016 5.08203 19.4391 5.11953 19.4742L5.12656 19.4813C5.20391 19.5586 5.28359 19.6336 5.36328 19.7062C7.24062 21.4406 9.74609 22.5 12.5 22.5C15.2539 22.5 17.7594 21.4406 19.632 19.7062C19.7119 19.6331 19.79 19.558 19.8664 19.4813L19.8734 19.4742C19.9109 19.4367 19.9484 19.4016 19.9836 19.3641L19.9859 19.3617C20.0633 19.2844 20.1383 19.2047 20.2109 19.125L20.2133 19.1227C20.2484 19.0828 20.2859 19.0453 20.3211 19.0055C20.3211 19.0031 20.3234 19.0031 20.3234 19.0008C20.3562 18.9656 20.3891 18.9281 20.4195 18.8906C20.4289 18.8789 20.4383 18.8695 20.4477 18.8578C20.4742 18.8296 20.4999 18.8006 20.525 18.7711ZM20.6211 15.4289C20.2977 16.193 19.8711 16.9008 19.3508 17.543C18.7648 17.0365 18.1241 16.5971 17.4406 16.2328C17.7125 15.1336 17.8813 13.9266 17.9258 12.6562H21.2891C21.2188 13.6148 20.9937 14.5453 20.6211 15.4289ZM21.2891 11.3438H17.9258C17.8813 10.0734 17.7125 8.86641 17.4406 7.76719C18.1273 7.40156 18.7672 6.96094 19.3508 6.45703C20.4818 7.84916 21.1584 9.55485 21.2891 11.3438ZM15.9289 3.87891C16.8594 4.27266 17.7055 4.81641 18.4508 5.50078C18.0178 5.86944 17.5518 6.19739 17.0586 6.48047C16.6906 5.42578 16.2195 4.50938 15.6711 3.77578C15.7578 3.80859 15.8445 3.84375 15.9289 3.87891ZM13.8055 20.2992C13.5898 20.468 13.3742 20.5969 13.1562 20.6836V16.3359C14.0862 16.4008 15.0008 16.6079 15.868 16.95C15.6734 17.5266 15.4484 18.0586 15.1883 18.5391C14.7805 19.2984 14.3023 19.9055 13.8055 20.2992ZM15.1883 5.46094C15.4461 5.94375 15.6734 6.47578 15.868 7.05C15.0008 7.39209 14.0862 7.59918 13.1562 7.66406V3.31875C13.3719 3.40547 13.5898 3.53203 13.8055 3.70312C14.3023 4.09453 14.7805 4.70156 15.1883 5.46094ZM13.1562 15.0211V12.6562H16.6133C16.5758 13.6922 16.4469 14.6977 16.2313 15.6516L16.2242 15.6797C15.2406 15.3067 14.2063 15.0847 13.1562 15.0211ZM13.1562 11.3438V8.97891C14.2297 8.91328 15.2609 8.68594 16.2242 8.32031L16.2313 8.34844C16.4469 9.30234 16.5758 10.3055 16.6133 11.3438H13.1562ZM11.8438 12.6562V15.0211C10.7703 15.0867 9.73906 15.3141 8.77578 15.6797L8.76875 15.6516C8.55312 14.6977 8.42422 13.6945 8.38672 12.6562H11.8438ZM8.38672 11.3438C8.42422 10.3078 8.55312 9.30234 8.76875 8.34844L8.77578 8.32031C9.73906 8.68594 10.768 8.91328 11.8438 8.97891V11.3438H8.38672ZM11.8438 16.3359V20.6813C11.6281 20.5945 11.4102 20.468 11.1945 20.2969C10.6977 19.9055 10.2172 19.2961 9.80938 18.5367C9.55156 18.0539 9.32422 17.5219 9.12969 16.9477C10.0016 16.6055 10.9086 16.4016 11.8438 16.3359ZM11.8438 7.66406C10.9138 7.59918 9.99924 7.39209 9.13203 7.05C9.32656 6.47344 9.55156 5.94141 9.81172 5.46094C10.2195 4.70156 10.6977 4.09219 11.1969 3.70078C11.4125 3.53203 11.6281 3.40313 11.8461 3.31641V7.66406H11.8438ZM9.07109 3.87891C9.15781 3.84375 9.24219 3.80859 9.32891 3.77578C8.78047 4.50938 8.30937 5.42578 7.94141 6.48047C7.44922 6.19922 6.98281 5.87109 6.54922 5.50078C7.29453 4.81641 8.14063 4.27266 9.07109 3.87891ZM4.37891 8.57109C4.70234 7.80703 5.12891 7.09922 5.64922 6.45703C6.23281 6.96094 6.87266 7.40156 7.55938 7.76719C7.2875 8.86641 7.11875 10.0734 7.07422 11.3438H3.71094C3.78125 10.3852 4.00625 9.45469 4.37891 8.57109ZM3.71094 12.6562H7.07422C7.11875 13.9266 7.2875 15.1336 7.55938 16.2328C6.87589 16.5971 6.23521 17.0365 5.64922 17.543C4.51819 16.1508 3.84164 14.4451 3.71094 12.6562ZM9.07109 20.1211C8.14063 19.7273 7.29453 19.1836 6.54922 18.4992C6.98281 18.1289 7.44922 17.8031 7.94141 17.5195C8.30937 18.5742 8.78047 19.4906 9.32891 20.2242C9.24219 20.1914 9.15547 20.1562 9.07109 20.1211ZM15.9289 20.1211C15.8422 20.1562 15.7578 20.1914 15.6711 20.2242C16.2195 19.4906 16.6906 18.5742 17.0586 17.5195C17.5508 17.8008 18.0172 18.1289 18.4508 18.4992C17.7096 19.1807 16.8565 19.7294 15.9289 20.1211Z" fill="white"/>
</g>
</svg>
