<svg width="25" height="24" viewBox="0 0 25 24" fill="none" xmlns="http://www.w3.org/2000/svg">
<g id="icon/outlined/application/message">
<path id="Vector" d="M11.3751 12C11.3751 12.2984 11.4937 12.5845 11.7046 12.7955C11.9156 13.0065 12.2018 13.125 12.5001 13.125C12.7985 13.125 13.0846 13.0065 13.2956 12.7955C13.5066 12.5845 13.6251 12.2984 13.6251 12C13.6251 11.7016 13.5066 11.4155 13.2956 11.2045C13.0846 10.9935 12.7985 10.875 12.5001 10.875C12.2018 10.875 11.9156 10.9935 11.7046 11.2045C11.4937 11.4155 11.3751 11.7016 11.3751 12ZM16.0626 12C16.0626 12.2984 16.1812 12.5845 16.3921 12.7955C16.6031 13.0065 16.8893 13.125 17.1876 13.125C17.486 13.125 17.7721 13.0065 17.9831 12.7955C18.1941 12.5845 18.3126 12.2984 18.3126 12C18.3126 11.7016 18.1941 11.4155 17.9831 11.2045C17.7721 10.9935 17.486 10.875 17.1876 10.875C16.8893 10.875 16.6031 10.9935 16.3921 11.2045C16.1812 11.4155 16.0626 11.7016 16.0626 12ZM6.68763 12C6.68763 12.2984 6.80616 12.5845 7.01714 12.7955C7.22812 13.0065 7.51426 13.125 7.81263 13.125C8.111 13.125 8.39715 13.0065 8.60813 12.7955C8.81911 12.5845 8.93763 12.2984 8.93763 12C8.93763 11.7016 8.81911 11.4155 8.60813 11.2045C8.39715 10.9935 8.111 10.875 7.81263 10.875C7.51426 10.875 7.22812 10.9935 7.01714 11.2045C6.80616 11.4155 6.68763 11.7016 6.68763 12ZM22.1845 7.93125C21.6548 6.67266 20.8954 5.54297 19.9275 4.57266C18.9663 3.60796 17.8252 2.84114 16.5689 2.31563C15.2798 1.77422 13.9111 1.5 12.5001 1.5H12.4533C11.0329 1.50703 9.65716 1.78828 8.36341 2.34141C7.11785 2.87232 5.98747 3.64049 5.03529 4.60312C4.0767 5.57109 3.32435 6.69609 2.80404 7.95C2.26498 9.24844 1.9931 10.6289 2.00013 12.0492C2.00809 13.6769 2.39316 15.2806 3.12513 16.7344V20.2969C3.12513 20.5828 3.23872 20.857 3.44091 21.0592C3.6431 21.2614 3.91732 21.375 4.20326 21.375H7.7681C9.22192 22.107 10.8256 22.492 12.4533 22.5H12.5025C13.9064 22.5 15.2681 22.2281 16.5501 21.6961C17.8001 21.1768 18.9369 20.419 19.897 19.4648C20.865 18.5063 21.6267 17.3859 22.1587 16.1367C22.7119 14.843 22.9931 13.4672 23.0001 12.0469C23.0072 10.6195 22.7306 9.23438 22.1845 7.93125ZM18.6431 18.1969C17.0001 19.8234 14.8204 20.7188 12.5001 20.7188H12.4603C11.047 20.7117 9.6431 20.3602 8.40326 19.6992L8.20638 19.5938H4.90638V16.2938L4.80091 16.0969C4.13998 14.857 3.78841 13.4531 3.78138 12.0398C3.77201 9.70312 4.66498 7.50937 6.30326 5.85703C7.9392 4.20469 10.1259 3.29062 12.4626 3.28125H12.5025C13.6744 3.28125 14.8111 3.50859 15.8822 3.95859C16.9275 4.39687 17.865 5.02734 18.6712 5.83359C19.4751 6.6375 20.1079 7.57734 20.5462 8.62266C21.0009 9.70547 21.2283 10.8539 21.2236 12.0398C21.2095 14.3742 20.2931 16.5609 18.6431 18.1969Z" fill="white"/>
</g>
</svg>
