<svg width="25" height="24" viewBox="0 0 25 24" fill="none" xmlns="http://www.w3.org/2000/svg">
<g id="vuesax/linear/profile">
<g id="profile">
<path id="Vector" d="M12.6586 10.87C12.5586 10.86 12.4386 10.86 12.3286 10.87C9.94859 10.79 8.05859 8.84 8.05859 6.44C8.05859 3.99 10.0386 2 12.4986 2C14.9486 2 16.9386 3.99 16.9386 6.44C16.9286 8.84 15.0386 10.79 12.6586 10.87Z" stroke="#EEA956" stroke-width="1.5" stroke-linecap="round" stroke-linejoin="round"/>
<path id="Vector_2" d="M7.65875 14.56C5.23875 16.18 5.23875 18.82 7.65875 20.43C10.4088 22.27 14.9188 22.27 17.6688 20.43C20.0888 18.81 20.0888 16.17 17.6688 14.56C14.9288 12.73 10.4188 12.73 7.65875 14.56Z" stroke="#EEA956" stroke-width="1.5" stroke-linecap="round" stroke-linejoin="round"/>
</g>
</g>
</svg>
