<svg width="25" height="24" viewBox="0 0 25 24" fill="none" xmlns="http://www.w3.org/2000/svg">
<g id="vuesax/linear/people">
<g id="people">
<g id="Group">
<path id="Vector" d="M18.4981 7.16C18.4381 7.15 18.3681 7.15 18.3081 7.16C16.9281 7.11 15.8281 5.98 15.8281 4.58C15.8281 3.15 16.9781 2 18.4081 2C19.8381 2 20.9881 3.16 20.9881 4.58C20.9781 5.98 19.8781 7.11 18.4981 7.16Z" stroke="#3ED6A4" stroke-width="1.5" stroke-linecap="round" stroke-linejoin="round"/>
<path id="Vector_2" d="M17.4675 14.4402C18.8375 14.6702 20.3475 14.4302 21.4075 13.7202C22.8175 12.7802 22.8175 11.2402 21.4075 10.3002C20.3375 9.59016 18.8075 9.35016 17.4375 9.59016" stroke="#3ED6A4" stroke-width="1.5" stroke-linecap="round" stroke-linejoin="round"/>
</g>
<g id="Group_2">
<path id="Vector_3" d="M6.47047 7.16C6.53047 7.15 6.60047 7.15 6.66047 7.16C8.04047 7.11 9.14047 5.98 9.14047 4.58C9.14047 3.15 7.99047 2 6.56047 2C5.13047 2 3.98047 3.16 3.98047 4.58C3.99047 5.98 5.09047 7.11 6.47047 7.16Z" stroke="#3ED6A4" stroke-width="1.5" stroke-linecap="round" stroke-linejoin="round"/>
<path id="Vector_4" d="M7.5014 14.4402C6.1314 14.6702 4.62141 14.4302 3.56141 13.7202C2.15141 12.7802 2.15141 11.2402 3.56141 10.3002C4.63141 9.59016 6.1614 9.35016 7.5314 9.59016" stroke="#3ED6A4" stroke-width="1.5" stroke-linecap="round" stroke-linejoin="round"/>
</g>
<g id="Group_3">
<path id="Vector_5" d="M12.4981 14.6297C12.4381 14.6197 12.3681 14.6197 12.3081 14.6297C10.9281 14.5797 9.82812 13.4497 9.82812 12.0497C9.82812 10.6197 10.9781 9.46973 12.4081 9.46973C13.8381 9.46973 14.9881 10.6297 14.9881 12.0497C14.9781 13.4497 13.8781 14.5897 12.4981 14.6297Z" stroke="#3ED6A4" stroke-width="1.5" stroke-linecap="round" stroke-linejoin="round"/>
<path id="Vector_6" d="M9.58875 17.7794C8.17875 18.7194 8.17875 20.2594 9.58875 21.1994C11.1888 22.2694 13.8087 22.2694 15.4087 21.1994C16.8187 20.2594 16.8187 18.7194 15.4087 17.7794C13.8187 16.7194 11.1888 16.7194 9.58875 17.7794Z" stroke="#3ED6A4" stroke-width="1.5" stroke-linecap="round" stroke-linejoin="round"/>
</g>
</g>
</g>
</svg>
