<svg width="25" height="24" viewBox="0 0 25 24" fill="none" xmlns="http://www.w3.org/2000/svg">
<g id="Compose">
<path id="Shape" d="M12.4571 13.4571L22.2071 3.70711C22.5976 3.31658 22.5976 2.68342 22.2071 2.29289C21.8166 1.90237 21.1834 1.90237 20.7929 2.29289L11.0429 12.0429L10.75 13.75L12.4571 13.4571ZM7 3C5.067 3 3.5 4.567 3.5 6.5V17.5C3.5 19.433 5.067 21 7 21H18C19.933 21 21.5 19.433 21.5 17.5V10C21.5 9.44772 21.0523 9 20.5 9C19.9477 9 19.5 9.44772 19.5 10V17.5C19.5 18.3284 18.8284 19 18 19H7C6.17157 19 5.5 18.3284 5.5 17.5V6.5C5.5 5.67157 6.17157 5 7 5H14.5C15.0523 5 15.5 4.55228 15.5 4C15.5 3.44772 15.0523 3 14.5 3H7Z" fill="#5D95E8"/>
</g>
</svg>
