<svg width="25" height="24" viewBox="0 0 25 24" fill="none" xmlns="http://www.w3.org/2000/svg">
<g id="icon/outlined/data/fund">
<path id="Vector" d="M22.2031 3.84375H2.70312C2.28828 3.84375 1.95312 4.17891 1.95312 4.59375V19.5938C1.95312 20.0086 2.28828 20.3438 2.70312 20.3438H22.2031C22.618 20.3438 22.9531 20.0086 22.9531 19.5938V4.59375C22.9531 4.17891 22.618 3.84375 22.2031 3.84375ZM21.2656 18.6562H3.64062V5.53125H21.2656V18.6562ZM5.82266 16.7273C5.89531 16.8 6.01484 16.8 6.0875 16.7273L10.1305 12.6844L12.8117 15.368C12.8844 15.4406 13.0039 15.4406 13.0766 15.368L20.0375 8.40234C20.1102 8.32969 20.1102 8.21016 20.0375 8.1375L19.175 7.275C19.1398 7.24011 19.0922 7.22053 19.0426 7.22053C18.993 7.22053 18.9454 7.24011 18.9102 7.275L12.9453 13.2422L10.2641 10.5586C10.2288 10.5237 10.1812 10.5041 10.1316 10.5041C10.082 10.5041 10.0345 10.5237 9.99922 10.5586L4.9625 15.5977C4.92761 15.6329 4.90803 15.6805 4.90803 15.7301C4.90803 15.7797 4.92761 15.8273 4.9625 15.8625L5.82266 16.7273Z" fill="white"/>
</g>
</svg>
