<svg width="19" height="13" viewBox="0 0 19 13" fill="none" xmlns="http://www.w3.org/2000/svg">
<path d="M0 13V11.3819C0 10.926 0.121225 10.534 0.363675 10.2059C0.606799 9.87838 0.933433 9.61639 1.34358 9.41989C2.21976 9.01381 3.08989 8.69025 3.95396 8.44921C4.81735 8.20818 5.85652 8.08767 7.07146 8.08767C8.2864 8.08767 9.32591 8.20818 10.19 8.44921C11.054 8.69025 11.9242 9.01381 12.8004 9.41989C13.2098 9.61639 13.5361 9.87838 13.7792 10.2059C14.0217 10.534 14.1429 10.926 14.1429 11.3819V13H0ZM16.1633 13V11.3367C16.1633 10.7669 16.0448 10.2294 15.8077 9.72446C15.5714 9.21881 15.2353 8.78522 14.7996 8.42367C15.2959 8.52192 15.7741 8.65815 16.2341 8.83238C16.6934 9.00726 17.148 9.20342 17.5978 9.42087C18.0356 9.63505 18.3787 9.90916 18.6272 10.2432C18.8757 10.5772 19 10.9417 19 11.3367V13H16.1633ZM7.07146 5.89578C6.23837 5.89578 5.52517 5.60694 4.93184 5.02925C4.33851 4.45156 4.04151 3.75761 4.04083 2.9474C4.04016 2.13719 4.33716 1.44357 4.93184 0.866537C5.52651 0.289501 6.23972 0.000656089 7.07146 1.11139e-06C7.9032 -0.000653866 8.61674 0.288191 9.21209 0.866537C9.80744 1.44488 10.1041 2.1385 10.1021 2.9474C10.1001 3.7563 9.8034 4.45057 9.21209 5.03023C8.62078 5.60989 7.90724 5.89808 7.07146 5.8948M14.4157 2.9474C14.4157 3.75826 14.1187 4.45254 13.5247 5.03023C12.9307 5.60792 12.2175 5.89611 11.385 5.8948C11.3419 5.8948 11.2874 5.89022 11.2214 5.88105C11.1554 5.87188 11.1008 5.8614 11.0577 5.84961C11.4005 5.44221 11.6635 4.99028 11.8467 4.4938C12.0306 3.99668 12.1225 3.48055 12.1225 2.94544C12.1225 2.41032 12.0265 1.89944 11.8346 1.41279C11.6427 0.92614 11.3837 0.470603 11.0577 0.0461774C11.1123 0.0271831 11.1668 0.0147384 11.2214 0.00884361C11.2759 0.00294881 11.3305 1.11139e-06 11.385 1.11139e-06C12.2181 1.11139e-06 12.9313 0.288846 13.5247 0.866537C14.118 1.44423 14.415 2.13785 14.4157 2.9474ZM1.01021 12.0175H13.1327V11.3819C13.1327 11.1513 13.0734 10.9499 12.9549 10.7777C12.8364 10.6054 12.6236 10.4403 12.3165 10.2825C11.5628 9.89082 10.7681 9.59084 9.93237 9.38256C9.09659 9.17428 8.14295 9.07013 7.07146 9.07013C5.99996 9.07013 5.04599 9.17428 4.20954 9.38256C3.37443 9.59084 2.57974 9.89082 1.82545 10.2825C1.51902 10.4397 1.30654 10.6047 1.18801 10.7777C1.06947 10.9499 1.01021 11.1513 1.01021 11.3819V12.0175ZM7.07146 4.91332C7.62707 4.91332 8.10288 4.72075 8.49888 4.33563C8.89489 3.9505 9.09255 3.48776 9.09188 2.9474C9.0912 2.40704 8.89354 1.94463 8.49888 1.56016C8.10423 1.17569 7.62842 0.983123 7.07146 0.982468C6.5145 0.981813 6.03903 1.17438 5.64505 1.56016C5.25106 1.94594 5.05306 2.40835 5.05104 2.9474C5.04902 3.48645 5.24702 3.94919 5.64505 4.33563C6.04307 4.72206 6.51854 4.9143 7.07146 4.91233" fill="white"/>
</svg>
