<svg width="29" height="30" viewBox="0 0 29 30" fill="none"
    xmlns="http://www.w3.org/2000/svg">
    <path fill-rule="evenodd" clipRule="evenodd" d="M0 1.1999C0 0.758075 0.358172 0.399902 0.8 0.399902H4.23399C4.65485 0.399902 5.02748 0.671842 5.15583 1.07265L6.29104 4.61749H26.7908C27.9249 4.61749 28.7166 5.7412 28.3349 6.80916L25.306 15.2836C25.0728 15.9361 24.4548 16.3715 23.7619 16.3715H10.0552L10.8561 18.8725H23.7729C24.2147 18.8725 24.5729 19.2307 24.5729 19.6725C24.5729 20.1144 24.2147 20.4725 23.7729 20.4725H10.3948C9.97397 20.4725 9.60134 20.2006 9.47299 19.7998L3.77274 1.9999H0.8C0.358172 1.9999 0 1.64173 0 1.1999ZM9.54278 14.7715H23.7619C23.7787 14.7715 23.7937 14.761 23.7994 14.7451L26.8283 6.27067C26.8319 6.26046 26.8314 6.25527 26.831 6.25227C26.8303 6.24774 26.8282 6.24123 26.8233 6.23436C26.8185 6.2275 26.8131 6.22327 26.809 6.22111C26.8064 6.21967 26.8016 6.21749 26.7908 6.21749H6.80342L9.54278 14.7715ZM11.9779 24.7732C11.0869 24.7732 10.3646 25.4955 10.3646 26.3866C10.3646 27.2776 11.0869 27.9999 11.9779 27.9999C12.869 27.9999 13.5913 27.2776 13.5913 26.3866C13.5913 25.4955 12.869 24.7732 11.9779 24.7732ZM8.7646 26.3866C8.7646 24.6119 10.2033 23.1732 11.9779 23.1732C13.7526 23.1732 15.1913 24.6119 15.1913 26.3866C15.1913 28.1612 13.7526 29.5999 11.9779 29.5999C10.2033 29.5999 8.7646 28.1612 8.7646 26.3866ZM23.7002 24.7732C22.8092 24.7732 22.0869 25.4955 22.0869 26.3866C22.0869 27.2776 22.8092 27.9999 23.7002 27.9999C24.5912 27.9999 25.3136 27.2776 25.3136 26.3866C25.3136 25.4955 24.5912 24.7732 23.7002 24.7732ZM20.4869 26.3866C20.4869 24.6119 21.9256 23.1732 23.7002 23.1732C25.4749 23.1732 26.9136 24.6119 26.9136 26.3866C26.9136 28.1612 25.4749 29.5999 23.7002 29.5999C21.9256 29.5999 20.4869 28.1612 20.4869 26.3866Z" fill="#ABADBA"/>
</svg>
