<svg width="25" height="24" viewBox="0 0 25 24" fill="none" xmlns="http://www.w3.org/2000/svg">
<path d="M0.5 12C0.5 5.37258 5.87258 0 12.5 0C19.1274 0 24.5 5.37258 24.5 12C24.5 18.6274 19.1274 24 12.5 24C5.87258 24 0.5 18.6274 0.5 12Z" fill="#373943"/>
<path d="M12.75 19C10.8272 19 8.98311 18.2362 7.62348 16.8765C6.26384 15.5169 5.5 13.6728 5.5 11.75C5.5 8.8125 7.1875 6.17875 9.80031 5.04156C9.8924 5.00143 9.99444 4.98996 10.0931 5.00866C10.1918 5.02735 10.2826 5.07534 10.3536 5.14637C10.4247 5.2174 10.4726 5.30818 10.4913 5.40687C10.51 5.50557 10.4986 5.6076 10.4584 5.69969C10.1584 6.38844 10 7.27063 10 8.25C10 11.6963 12.8038 14.5 16.25 14.5C17.2294 14.5 18.1116 14.3416 18.8003 14.0416C18.8924 14.0014 18.9944 13.99 19.0931 14.0087C19.1918 14.0274 19.2826 14.0753 19.3536 14.1464C19.4247 14.2174 19.4726 14.3082 19.4913 14.4069C19.51 14.5056 19.4986 14.6076 19.4584 14.6997C18.3213 17.3125 15.6875 19 12.75 19Z" fill="#99BAFF"/>
</svg>
