<svg width="32" height="32" viewBox="0 0 32 32" fill="none"
    xmlns="http://www.w3.org/2000/svg">
    <path fill-rule="evenodd" clipRule="evenodd" d="M13.0198 1.09205C12.7337 0.913241 12.3714 0.910572 12.0827 1.08514L0.433312 8.12927C-0.341817 8.59798 -0.00955931 9.78962 0.896271 9.78962H2.08123V24.328H1.78391C1.28977 24.328 0.889192 24.7286 0.889192 25.2227V28.7726C0.889192 29.2667 1.28977 29.6673 1.78391 29.6673H14.8801C15.3036 29.6673 15.647 29.3239 15.647 28.9004C15.647 28.4768 15.3036 28.1335 14.8801 28.1335H2.42299V25.8618H14.0526C14.4762 25.8618 14.8195 25.5184 14.8195 25.0949C14.8195 24.9605 14.7849 24.8341 14.7242 24.7242V9.78962H17.8416V13.9083C17.8416 14.3319 18.1849 14.6752 18.6085 14.6752C19.032 14.6752 19.3754 14.3319 19.3754 13.9083V9.78962H20.8981V12.5441C20.8981 12.9676 21.2415 13.311 21.665 13.311C22.0886 13.311 22.4319 12.9676 22.4319 12.5441V9.78962H23.8165C24.7154 9.78962 25.0529 8.6126 24.2906 8.13618L13.0198 1.09205ZM3.18825 8.25582L12.5401 2.60095L21.5881 8.25582H3.18825ZM5.13783 24.328H3.61503V9.78962H5.13783V24.328ZM10.1338 24.328H6.67162V9.78962H10.1338V24.328ZM13.1904 24.328H11.6676V9.78962H13.1904V24.328Z" fill="#ABADBA"/>
    <path d="M21.9746 20.8132C21.9746 20.2583 22.4361 19.6699 23.2022 19.4604V22.1652C22.4361 21.9565 21.9746 21.3681 21.9746 20.8132Z" fill="#ABADBA"/>
    <path d="M24.4298 23.5532C25.1958 23.7619 25.6574 24.3504 25.6574 24.9052C25.6574 25.4601 25.1958 26.0485 24.4298 26.2572V23.5532Z" fill="#ABADBA"/>
    <path fill-rule="evenodd" clipRule="evenodd" d="M32 22.8593C32 27.3793 28.336 31.0433 23.816 31.0433C19.2959 31.0433 15.6319 27.3793 15.6319 22.8593C15.6319 18.3392 19.2959 14.6752 23.816 14.6752C28.336 14.6752 32 18.3392 32 22.8593ZM23.816 17.3351C23.9788 17.3351 24.1349 17.3997 24.25 17.5148C24.3651 17.6299 24.4298 17.7861 24.4298 17.9489V18.2083C25.7638 18.4473 26.885 19.4498 26.885 20.8133C26.885 20.9761 26.8203 21.1322 26.7052 21.2473C26.5901 21.3624 26.434 21.4271 26.2712 21.4271C26.1084 21.4271 25.9523 21.3624 25.8371 21.2473C25.722 21.1322 25.6574 20.9761 25.6574 20.8133C25.6574 20.2584 25.1958 19.67 24.4298 19.4605V22.3003C25.7638 22.5393 26.885 23.5418 26.885 24.9053C26.885 26.2688 25.7638 27.2713 24.4298 27.5103V27.7697C24.4298 27.9325 24.3651 28.0886 24.25 28.2037C24.1349 28.3188 23.9788 28.3835 23.816 28.3835C23.6532 28.3835 23.497 28.3188 23.3819 28.2037C23.2668 28.0886 23.2022 27.9325 23.2022 27.7697V27.5103C21.8682 27.2713 20.7469 26.2688 20.7469 24.9053C20.7469 24.7425 20.8116 24.5864 20.9267 24.4713C21.0418 24.3562 21.198 24.2915 21.3608 24.2915C21.5235 24.2915 21.6797 24.3562 21.7948 24.4713C21.9099 24.5864 21.9746 24.7425 21.9746 24.9053C21.9746 25.4602 22.4361 26.0486 23.2022 26.2573V23.4183C21.8682 23.1793 20.7469 22.1767 20.7469 20.8133C20.7469 19.4498 21.8682 18.4473 23.2022 18.2083V17.9489C23.2022 17.7861 23.2668 17.6299 23.3819 17.5148C23.497 17.3997 23.6532 17.3351 23.816 17.3351Z" fill="#ABADBA"/>
</svg>
