<svg width="10" height="10" viewBox="0 0 10 10" fill="none" xmlns="http://www.w3.org/2000/svg">
<path d="M5.77006 4.99967L9.6392 0.520533C9.70405 0.446096 9.64951 0.333008 9.54928 0.333008H8.37307C8.30379 0.333008 8.23746 0.363069 8.19177 0.414603L5.00065 4.10929L1.80953 0.414603C1.76532 0.363069 1.69899 0.333008 1.62824 0.333008H0.452019C0.35179 0.333008 0.297254 0.446096 0.362108 0.520533L4.23125 4.99967L0.362108 9.47882C0.34758 9.49541 0.338259 9.5157 0.335253 9.53728C0.332247 9.55887 0.335681 9.58083 0.345147 9.60058C0.354614 9.62032 0.369716 9.63701 0.38866 9.64867C0.407603 9.66033 0.429593 9.66646 0.452019 9.66634H1.62824C1.69751 9.66634 1.76384 9.63628 1.80953 9.58475L5.00065 5.89006L8.19177 9.58475C8.23599 9.63628 8.30232 9.66634 8.37307 9.66634H9.54928C9.64951 9.66634 9.70405 9.55325 9.6392 9.47882L5.77006 4.99967Z" fill="#42A732"/>
</svg>
