<svg width="12" height="16" viewBox="0 0 12 16" fill="none" xmlns="http://www.w3.org/2000/svg">
<path d="M11.2446 14.4972C11.6589 14.4972 11.9946 14.833 11.9946 15.2472C11.9946 15.6269 11.7125 15.9407 11.3464 15.9904L11.2446 15.9972H0.75C0.335786 15.9972 0 15.6614 0 15.2472C0 14.8675 0.282154 14.5537 0.64823 14.5041L0.75 14.4972H11.2446ZM6.00362 -0.000976562C6.38332 -0.000976562 6.69711 0.281177 6.74678 0.647253L6.75362 0.749023L6.753 10.942L9.71922 7.97144C9.98524 7.70493 10.4019 7.68034 10.6957 7.89792L10.7799 7.97046C11.0464 8.23649 11.071 8.65313 10.8534 8.94694L10.7809 9.03112L6.53803 13.2818L6.46737 13.3443L6.3764 13.4029L6.33998 13.424L6.2488 13.462L6.12832 13.4921L6.05907 13.5L5.999 13.5019C5.94888 13.5019 5.89801 13.4964 5.84828 13.4859L5.76741 13.4627C5.6714 13.4317 5.58429 13.3815 5.51014 13.3167L1.22056 9.03199C0.927459 8.73931 0.927121 8.26443 1.21981 7.97133C1.48588 7.70487 1.90253 7.68037 2.1963 7.89802L2.28047 7.97057L5.253 10.938L5.25362 0.749023C5.25362 0.33481 5.58941 -0.000976562 6.00362 -0.000976562Z" fill="#42A732"/>
</svg>
