<svg width="32" height="32" viewBox="0 0 32 32" fill="none"
    xmlns="http://www.w3.org/2000/svg">
    <path fill-rule="evenodd" clipRule="evenodd" d="M14.9254 0C6.68213 0 0 6.68213 0 14.9254C0 23.1687 6.68213 29.8508 14.9254 29.8508C15.392 29.8508 15.7703 29.4726 15.7703 29.006C15.7703 28.5394 15.392 28.1612 14.9254 28.1612C13.5313 28.1612 12.1874 27.9456 10.9255 27.5461C11.0849 27.2844 11.2325 26.9928 11.3416 26.6764C11.7317 25.5444 11.6734 24.133 10.7529 22.2919C10.4739 21.734 10.3529 21.0713 10.301 20.3231C10.2752 19.9515 10.2672 19.5755 10.2603 19.1895L10.2589 19.1099C10.2526 18.7561 10.2462 18.3896 10.2244 18.0409C10.1794 17.3207 10.0639 16.4883 9.59215 15.8376C9.06827 15.115 8.24269 14.7846 7.18109 14.7846C4.80871 14.7846 3.61261 14.3891 2.92502 14.0097C2.57766 13.8181 2.32985 13.6145 2.09222 13.4079C2.06782 13.3867 2.04213 13.364 2.01522 13.3403C1.95213 13.2848 1.88199 13.223 1.80639 13.1599C2.51403 7.85062 6.36886 3.53661 11.4337 2.15507C11.3512 2.5483 11.3138 2.96586 11.3566 3.39311C11.4795 4.62074 12.2343 5.72409 13.8435 6.52868C13.8601 6.53697 13.9504 6.58214 14.0557 6.96504C14.1056 7.14686 14.1465 7.35545 14.1956 7.6139L14.2027 7.65159C14.2481 7.89033 14.3002 8.16484 14.3694 8.44195C14.5155 9.02682 14.7557 9.70396 15.2679 10.2895C15.7931 10.8898 16.5409 11.3228 17.575 11.5297C18.7037 11.7554 19.5996 11.4532 20.3286 10.8918C20.9651 10.4016 21.4815 9.70328 21.9298 9.09709L22.0024 8.99898C22.9481 7.72255 23.755 6.72599 25.2367 6.62612C27.0661 8.89618 28.1612 11.7829 28.1612 14.9254C28.1612 15.392 28.5394 15.7703 29.006 15.7703C29.4726 15.7703 29.8508 15.392 29.8508 14.9254C29.8508 6.68213 23.1687 0 14.9254 0ZM13.0378 3.22478C12.9925 2.77161 13.1122 2.28244 13.3116 1.78706C13.8405 1.72277 14.3791 1.68967 14.9254 1.68967C18.3826 1.68967 21.5301 3.01499 23.8876 5.18529C22.3284 5.72058 21.39 6.98727 20.6569 7.97678L20.6448 7.99309C20.1331 8.68376 19.7422 9.21069 19.2976 9.55312C18.9107 9.85106 18.5036 9.99226 17.9064 9.87282C17.1805 9.72764 16.7844 9.4567 16.5396 9.17696C16.282 8.88248 16.1264 8.50359 16.0087 8.03244C15.9515 7.80345 15.9075 7.57173 15.86 7.32206L15.8555 7.29844C15.8085 7.05087 15.7559 6.77544 15.6849 6.51723C15.5486 6.02137 15.2871 5.36141 14.5991 5.01741C13.3923 4.41395 13.0912 3.75722 13.0378 3.22478ZM1.69324 15.2358C1.81229 20.4095 4.89971 24.8493 9.31882 26.9186C9.48881 26.6877 9.63527 26.4417 9.74409 26.1259C9.95243 25.5213 10.0107 24.5859 9.24156 23.0476C8.81651 22.1975 8.67343 21.2761 8.61538 20.4402C8.58619 20.0198 8.57772 19.6037 8.57086 19.2197L8.56962 19.1499C8.56317 18.7858 8.55733 18.4556 8.53799 18.1463C8.495 17.4584 8.39043 17.0587 8.22417 16.8294C8.11003 16.6719 7.87956 16.4743 7.18109 16.4743C4.62526 16.4743 3.12258 16.0485 2.10877 15.4892C1.95728 15.4056 1.81936 15.3204 1.69324 15.2358Z" fill="#ABADBA"/>
    <path d="M21.5418 21.3283C21.5418 20.7495 22.0233 20.1357 22.8224 19.9171V22.7387C22.0233 22.521 21.5418 21.9072 21.5418 21.3283Z" fill="#ABADBA"/>
    <path d="M24.103 27.0073V24.1866C24.9021 24.4043 25.3836 25.0181 25.3836 25.597C25.3836 26.1758 24.9021 26.7896 24.103 27.0073Z" fill="#ABADBA"/>
    <path fill-rule="evenodd" clipRule="evenodd" d="M23.4627 32C28.1778 32 32 28.1779 32 23.4627C32 18.7476 28.1778 14.9254 23.4627 14.9254C18.7475 14.9254 14.9254 18.7476 14.9254 23.4627C14.9254 28.1779 18.7475 32 23.4627 32ZM23.9154 17.8876C23.7954 17.7675 23.6325 17.7 23.4627 17.7C23.2929 17.7 23.13 17.7675 23.0099 17.8876C22.8898 18.0077 22.8224 18.1705 22.8224 18.3403V18.611C21.4308 18.8603 20.2612 19.9061 20.2612 21.3284C20.2612 22.7507 21.4308 23.7965 22.8224 24.0458V27.0074C22.0233 26.7897 21.5418 26.1759 21.5418 25.597C21.5418 25.4272 21.4743 25.2644 21.3542 25.1443C21.2342 25.0242 21.0713 24.9567 20.9015 24.9567C20.7317 24.9567 20.5688 25.0242 20.4487 25.1443C20.3287 25.2644 20.2612 25.4272 20.2612 25.597C20.2612 27.0193 21.4308 28.0652 22.8224 28.3145V28.5851C22.8224 28.7549 22.8898 28.9178 23.0099 29.0378C23.13 29.1579 23.2929 29.2254 23.4627 29.2254C23.6325 29.2254 23.7954 29.1579 23.9154 29.0378C24.0355 28.9178 24.103 28.7549 24.103 28.5851V28.3145C25.4945 28.0652 26.6642 27.0193 26.6642 25.597C26.6642 24.1747 25.4945 23.1289 24.103 22.8796V19.9172C24.9021 20.1357 25.3836 20.7496 25.3836 21.3284C25.3836 21.4982 25.451 21.6611 25.5711 21.7812C25.6912 21.9012 25.854 21.9687 26.0239 21.9687C26.1937 21.9687 26.3565 21.9012 26.4766 21.7812C26.5967 21.6611 26.6642 21.4982 26.6642 21.3284C26.6642 19.9061 25.4945 18.8603 24.103 18.611V18.3403C24.103 18.1705 24.0355 18.0077 23.9154 17.8876Z" fill="#ABADBA"/>
</svg>
