<svg width="24" height="23" viewBox="0 0 24 23" fill="none"
    xmlns="http://www.w3.org/2000/svg">
    <path fill-rule="evenodd" clipRule="evenodd" d="M3.25 0.5C3.66421 0.5 4 0.843595 4 1.26744V10.8215C5.43335 11.168 6.5 12.4856 6.5 14.0581C6.5 15.6307 5.43335 16.9483 4 17.2947V21.7326C4 22.1564 3.66421 22.5 3.25 22.5C2.83579 22.5 2.5 22.1564 2.5 21.7326V17.2947C1.06665 16.9483 0 15.6307 0 14.0581C0 12.4856 1.06665 11.168 2.5 10.8215V1.26744C2.5 0.843595 2.83579 0.5 3.25 0.5ZM12 0.5C12.4142 0.5 12.75 0.843595 12.75 1.26744V4.4262C14.1834 4.77265 15.25 6.09026 15.25 7.66279C15.25 9.23532 14.1834 10.5529 12.75 10.8994V21.7326C12.75 22.1564 12.4142 22.5 12 22.5C11.5858 22.5 11.25 22.1564 11.25 21.7326V10.8994C9.81665 10.5529 8.75 9.23532 8.75 7.66279C8.75 6.09026 9.81665 4.77265 11.25 4.4262V1.26744C11.25 0.843595 11.5858 0.5 12 0.5ZM20.75 0.5C21.1642 0.5 21.5 0.843595 21.5 1.26744V12.1006C22.9333 12.4471 24 13.7647 24 15.3372C24 16.9097 22.9333 18.2273 21.5 18.5738V21.7326C21.5 22.1564 21.1642 22.5 20.75 22.5C20.3358 22.5 20 22.1564 20 21.7326V18.5738C18.5667 18.2273 17.5 16.9097 17.5 15.3372C17.5 13.7647 18.5667 12.4471 20 12.1006V1.26744C20 0.843595 20.3358 0.5 20.75 0.5ZM12 5.87209C11.0335 5.87209 10.25 6.67382 10.25 7.66279C10.25 8.65176 11.0335 9.45349 12 9.45349C12.9665 9.45349 13.75 8.65176 13.75 7.66279C13.75 6.67382 12.9665 5.87209 12 5.87209ZM3.25 12.2674C2.2835 12.2674 1.5 13.0692 1.5 14.0581C1.5 15.0471 2.2835 15.8488 3.25 15.8488C4.2165 15.8488 5 15.0471 5 14.0581C5 13.0692 4.2165 12.2674 3.25 12.2674ZM20.75 13.5465C19.7835 13.5465 19 14.3482 19 15.3372C19 16.3262 19.7835 17.1279 20.75 17.1279C21.7165 17.1279 22.5 16.3262 22.5 15.3372C22.5 14.3482 21.7165 13.5465 20.75 13.5465Z" fill="#99BAFF"/>
</svg>
