<svg width="19" height="17" viewBox="0 0 19 17" fill="none" xmlns="http://www.w3.org/2000/svg">
<path d="M17.8336 0.222168H1.16688C1.01954 0.222168 0.878233 0.2807 0.774047 0.384887C0.66986 0.489073 0.611328 0.630381 0.611328 0.777723V1.7055C0.61215 1.9704 0.718047 2.22415 0.905773 2.41106L7.278 8.87772V14.5444L8.38911 14.9666V8.5555C8.38953 8.48239 8.37551 8.40991 8.34787 8.34222C8.32022 8.27453 8.27948 8.21297 8.228 8.16106L1.72244 1.66106V1.33328H17.278V1.67217L10.7947 8.16106C10.7391 8.21109 10.6943 8.27181 10.6628 8.33959C10.6313 8.40737 10.6138 8.4808 10.6113 8.5555V15.8944L11.7224 16.3333V8.83328L18.0947 2.44439C18.1896 2.34987 18.2646 2.23723 18.3152 2.11317C18.3658 1.9891 18.3909 1.85614 18.3891 1.72217V0.777723C18.3891 0.630381 18.3306 0.489073 18.2264 0.384887C18.1222 0.2807 17.9809 0.222168 17.8336 0.222168Z" fill="white"/>
</svg>
