<svg width="16" height="16" viewBox="0 0 16 16" fill="none" xmlns="http://www.w3.org/2000/svg">
<path d="M3.60091 1.40039H12.4009C13.1342 1.40039 13.7342 2.00039 13.7342 2.73372V4.20039C13.7342 4.73372 13.4009 5.40039 13.0676 5.73372L10.2009 8.26706C9.80091 8.60039 9.53424 9.26706 9.53424 9.80039V12.6671C9.53424 13.0671 9.26758 13.6004 8.93424 13.8004L8.00091 14.4004C7.13425 14.9337 5.93424 14.3337 5.93424 13.2671V9.73372C5.93424 9.26706 5.66758 8.66706 5.40091 8.33372L2.86758 5.66706C2.53424 5.33372 2.26758 4.73372 2.26758 4.33372V2.80039C2.26758 2.00039 2.86758 1.40039 3.60091 1.40039Z" stroke="white" stroke-width="1.5" stroke-miterlimit="10" stroke-linecap="round" stroke-linejoin="round"/>
<path d="M7.28667 1.40039L4 6.66706" stroke="white" stroke-width="1.5" stroke-miterlimit="10" stroke-linecap="round" stroke-linejoin="round"/>
</svg>
