<svg width="24" height="24" viewBox="0 0 24 24" fill="none" xmlns="http://www.w3.org/2000/svg">
<g id="icon/filled/application/like">
<path id="Vector" d="M20.4128 12.4751C20.7908 11.9902 21 11.3961 21 10.7779C21 9.79724 20.4353 8.86896 19.5263 8.3513C19.2922 8.21806 19.0258 8.14793 18.7545 8.14817H13.359L13.494 5.46379C13.5255 4.81509 13.2893 4.19914 12.8303 3.72954C12.605 3.49807 12.3332 3.31391 12.0318 3.18844C11.7303 3.06296 11.4055 2.99883 11.0775 3.00002C9.9075 3.00002 8.8725 3.76449 8.562 4.85877L6.62925 11.6516H6.6225V21H17.2493C17.4563 21 17.6588 20.9607 17.8455 20.8821C18.9165 20.4387 19.6073 19.423 19.6073 18.296C19.6073 18.0208 19.5668 17.7499 19.4858 17.4878C19.8638 17.0029 20.073 16.4088 20.073 15.7907C20.073 15.5155 20.0325 15.2446 19.9515 14.9825C20.3295 14.4976 20.5388 13.9035 20.5388 13.2854C20.5343 13.0102 20.4938 12.7372 20.4128 12.4751ZM3 12.3506V20.3011C3 20.6877 3.32175 21 3.72 21H5.1825V11.6516H3.72C3.32175 11.6516 3 11.964 3 12.3506Z" fill="#42A732"/>
</g>
</svg>
