<svg width="18" height="18" viewBox="0 0 18 18" fill="none"
    xmlns="http://www.w3.org/2000/svg">
    <path d="M3.79682 2.53901L4.82573 1.5101C4.85051 1.4852 4.86781 1.45384 4.87565 1.41959C4.88349 1.38534 4.88157 1.34957 4.87009 1.31636C4.85861 1.28315 4.83805 1.25383 4.81073 1.23173C4.78341 1.20963 4.75045 1.19564 4.71557 1.19135L0.960884 0.748384C0.841353 0.734322 0.738228 0.835103 0.75229 0.956978L1.19526 4.71167C1.21401 4.86635 1.40385 4.93198 1.51401 4.82182L2.53823 3.7976L5.67182 6.92885C5.74448 7.00151 5.86401 7.00151 5.93667 6.92885L6.93042 5.93745C7.00307 5.86479 7.00307 5.74526 6.93042 5.6726L3.79682 2.53901ZM12.0632 6.92885C12.1359 7.00151 12.2554 7.00151 12.3281 6.92885L15.4617 3.7976L16.4859 4.82182C16.5108 4.84661 16.5422 4.8639 16.5764 4.87174C16.6107 4.87959 16.6464 4.87766 16.6796 4.86618C16.7128 4.85471 16.7422 4.83414 16.7643 4.80682C16.7864 4.77951 16.8003 4.74654 16.8046 4.71167L17.2476 0.959322C17.2617 0.83979 17.1609 0.736666 17.039 0.750728L13.2843 1.1937C13.1296 1.21245 13.064 1.40229 13.1742 1.51245L14.2031 2.54135L11.0695 5.67026C11.0346 5.7055 11.015 5.75309 11.015 5.80268C11.015 5.85227 11.0346 5.89986 11.0695 5.9351L12.0632 6.92885ZM16.8046 13.2851C16.7859 13.1304 16.596 13.0648 16.4859 13.1749L15.4617 14.1992L12.3281 11.0679C12.2928 11.033 12.2452 11.0134 12.1956 11.0134C12.1461 11.0134 12.0985 11.033 12.0632 11.0679L11.0695 12.0593C11.0346 12.0946 11.015 12.1422 11.015 12.1917C11.015 12.2413 11.0346 12.2889 11.0695 12.3242L14.2031 15.4578L13.1742 16.4867C13.1494 16.5116 13.1321 16.5429 13.1242 16.5772C13.1164 16.6114 13.1183 16.6472 13.1298 16.6804C13.1413 16.7136 13.1618 16.7429 13.1892 16.765C13.2165 16.7871 13.2494 16.8011 13.2843 16.8054L17.039 17.2484C17.1585 17.2624 17.2617 17.1617 17.2476 17.0398L16.8046 13.2851ZM5.93667 11.0679C5.90142 11.033 5.85384 11.0134 5.80424 11.0134C5.75465 11.0134 5.70706 11.033 5.67182 11.0679L2.53823 14.1992L1.51401 13.1749C1.4891 13.1502 1.45774 13.1329 1.42349 13.125C1.38924 13.1172 1.35348 13.1191 1.32027 13.1306C1.28706 13.1421 1.25774 13.1626 1.23564 13.1899C1.21354 13.2173 1.19955 13.2502 1.19526 13.2851L0.75229 17.0374C0.738228 17.157 0.839009 17.2601 0.960884 17.246L4.71557 16.8031C4.87026 16.7843 4.93588 16.5945 4.82573 16.4843L3.79682 15.4578L6.93042 12.3265C7.00307 12.2539 7.00307 12.1343 6.93042 12.0617L5.93667 11.0679Z" fill="#C8C3BC"/>
</svg>
