<svg width="26" height="30" viewBox="0 0 26 30" fill="none"
    xmlns="http://www.w3.org/2000/svg">
    <path fill-rule="evenodd" clipRule="evenodd" d="M13.6177 0.752C13.3523 0.614553 13.0371 0.612536 12.77 0.746574L0.726693 6.78906C0.411133 6.94739 0.211914 7.27022 0.211914 7.62328V22.5846C0.211914 22.9424 0.416393 23.2686 0.738343 23.4246L12.7816 29.2587C13.0423 29.385 13.3469 29.3831 13.6059 29.2536L25.2719 23.4206C25.5881 23.2625 25.7878 22.9393 25.7878 22.5858V7.62211C25.7878 7.27336 25.5934 6.95369 25.2837 6.79332L13.6177 0.752ZM2.78111 7.54839L7.09159 5.38569L17.1844 10.5036L12.9284 12.6023L2.78111 7.54839ZM1.81191 8.85314V22.1668L12.2759 27.2359V14.0647L1.81191 8.85314ZM18.978 9.61911L8.86987 4.49347L13.1837 2.32907L23.2209 7.5269L18.978 9.61911ZM13.8759 27.3297L24.1878 22.1738V8.83405L13.8759 13.919V27.3297Z" fill="#99BAFF"/>
</svg>
