<svg width="33" height="32" viewBox="0 0 33 32" fill="none" xmlns="http://www.w3.org/2000/svg">
<g id="google">
<path id="vector" d="M30.5033 16.3114C30.5033 15.1603 30.408 14.3203 30.2018 13.4492H16.7891V18.6447H24.662C24.5033 19.9359 23.6462 21.8803 21.7414 23.1869L21.7147 23.3609L25.9555 26.5805L26.2494 26.6092C28.9477 24.167 30.5033 20.5736 30.5033 16.3114Z" fill="#4285F4"/>
<path id="vector_2" d="M16.7853 29.9998C20.6424 29.9998 23.8804 28.7553 26.2456 26.6086L21.7377 23.1863C20.5313 24.0108 18.9123 24.5863 16.7853 24.5863C13.0076 24.5863 9.80128 22.1441 8.65832 18.7686L8.49078 18.7825L4.08111 22.127L4.02344 22.2841C6.37261 26.8574 11.198 29.9998 16.7853 29.9998Z" fill="#34A853"/>
<path id="vector_3" d="M8.65866 18.769C8.35708 17.8979 8.18255 16.9645 8.18255 16.0001C8.18255 15.0356 8.35708 14.1023 8.6428 13.2312L8.63481 13.0456L4.16986 9.64746L4.02377 9.71556C3.05556 11.6134 2.5 13.7445 2.5 16.0001C2.5 18.2556 3.05556 20.3867 4.02377 22.2845L8.65866 18.769Z" fill="#FBBC05"/>
<path id="vector_4" d="M16.7854 7.4133C19.4679 7.4133 21.2774 8.54885 22.3092 9.4978L26.3409 5.64C23.8648 3.38445 20.6425 2 16.7854 2C11.198 2 6.37262 5.1422 4.02344 9.71549L8.64247 13.2311C9.80131 9.85555 13.0076 7.4133 16.7854 7.4133Z" fill="#EB4335"/>
</g>
</svg>
