<svg width="12" height="12" viewBox="0 0 12 12" fill="none" xmlns="http://www.w3.org/2000/svg">
<path d="M11 6C10.9986 4.67436 10.4713 3.40342 9.53397 2.46605C8.59662 1.52868 7.3257 1.00143 6.00009 1C5.88958 1 5.7836 1.0439 5.70547 1.12204C5.62733 1.20018 5.58343 1.30616 5.58343 1.41667C5.58343 1.52717 5.62733 1.63315 5.70547 1.71129C5.7836 1.78943 5.88958 1.83333 6.00009 1.83333C6.78869 1.83328 7.56112 2.05703 8.2276 2.47859C8.89408 2.90015 9.42725 3.50219 9.76513 4.21476C10.103 4.92733 10.2317 5.72116 10.1364 6.50399C10.041 7.28682 9.72538 8.02651 9.22627 8.63708L8.22629 7.63708L7.80089 10.6162L10.7796 10.1904L9.81585 9.22667C10.5824 8.32655 11.0023 7.18229 11 6Z" fill="#42A732"/>
<path d="M6.00009 10.1667C5.21148 10.1667 4.43905 9.94296 3.77257 9.52141C3.10609 9.09985 2.57293 8.49781 2.23504 7.78524C1.89716 7.07267 1.76843 6.27884 1.86382 5.49601C1.95921 4.71318 2.27479 3.97349 2.7739 3.36292L3.77388 4.36292L4.19929 1.38375L1.2206 1.80958L2.18433 2.77333C1.56799 3.5008 1.17266 4.38943 1.04499 5.33431C0.917333 6.27918 1.06268 7.24086 1.46386 8.10581C1.86505 8.97076 2.50533 9.70287 3.30912 10.2157C4.11291 10.7285 5.04664 11.0007 6.00009 11C6.11059 11 6.21657 10.9561 6.29471 10.878C6.37285 10.7998 6.41675 10.6938 6.41675 10.5833C6.41675 10.4728 6.37285 10.3668 6.29471 10.2887C6.21657 10.2106 6.11059 10.1667 6.00009 10.1667Z" fill="#42A732"/>
<path d="M7.65964 6.9225C7.66361 7.08011 7.63252 7.23663 7.5686 7.38074C7.50468 7.52486 7.40955 7.65298 7.29006 7.75583C6.98493 7.99807 6.61203 8.13946 6.223 8.16042V8.91667H5.75968V8.18083C5.27363 8.18963 4.79086 8.09977 4.34054 7.91667V7.18042C4.56497 7.28648 4.79985 7.36887 5.04136 7.42625C5.27607 7.48791 5.51709 7.52244 5.75968 7.52917V6.225L5.46801 6.11667C5.15124 6.01189 4.86459 5.83189 4.63261 5.59208C4.45428 5.38188 4.36016 5.11304 4.36845 4.8375C4.36543 4.68552 4.39772 4.53492 4.46279 4.39754C4.52786 4.26016 4.62394 4.13977 4.74345 4.04583C5.03749 3.8225 5.39146 3.69193 5.76009 3.67083V3.08333H6.22342V3.65875C6.68443 3.67271 7.13917 3.76953 7.56589 3.94458L7.31089 4.58333C6.96319 4.44348 6.59648 4.35654 6.223 4.32542V5.59458L6.48799 5.69583C6.8296 5.80465 7.14272 5.98811 7.40464 6.23292C7.57467 6.42172 7.66592 6.66849 7.65964 6.9225ZM5.1876 4.83042C5.18421 4.95283 5.22911 5.07167 5.3126 5.16125C5.44225 5.27865 5.59494 5.36777 5.76093 5.42292V4.33958C5.60555 4.35457 5.45775 4.41387 5.3351 4.51042C5.2883 4.54946 5.25078 4.59843 5.22526 4.65378C5.19975 4.70913 5.18689 4.76947 5.1876 4.83042ZM6.83674 6.97458C6.83859 6.91213 6.82693 6.85001 6.80255 6.79247C6.77817 6.73494 6.74165 6.68336 6.69549 6.64125C6.55515 6.5282 6.3949 6.44242 6.223 6.38833V7.5C6.63216 7.43805 6.83674 7.26292 6.83674 6.97458Z" fill="#42A732"/>
</svg>
