<svg width="10" height="10" viewBox="0 0 10 10" fill="none" xmlns="http://www.w3.org/2000/svg">
<path d="M3.84385 5.12514C2.66465 5.12514 1.70838 3.74178 1.70838 2.56257V2.13547C1.70838 0.956266 2.66465 0 3.84385 0C5.02306 0 5.97933 0.956266 5.97933 2.13547V2.56257C5.97933 3.74178 5.02306 5.12514 3.84385 5.12514Z" fill="#42A732"/>
<path d="M5.12514 8.5419C5.12514 7.64244 5.52405 6.83779 6.15273 6.28983C5.51123 6.12155 4.71427 5.97933 3.84385 5.97933C2.63774 5.97933 1.56787 6.25182 0.865294 6.48885C0.345947 6.66439 0 7.15341 0 7.70138V9.39609H5.2507C5.16998 9.12531 5.12514 8.83873 5.12514 8.5419Z" fill="#42A732"/>
<path d="M7.26061 10L5.80251 8.5419L6.40642 7.93799L7.26061 8.79218L9.39609 6.6567L10 7.26061L7.26061 10Z" fill="#42A732"/>
</svg>
