<svg width="76" height="68" viewBox="0 0 76 68" fill="none" xmlns="http://www.w3.org/2000/svg">
<rect x="1.25" y="1.25" width="73.5" height="65.5" rx="18.75" stroke="white" stroke-width="2.5"/>
<rect x="16" y="12" width="44" height="44" rx="22" fill="white"/>
<path d="M47.794 31.0426L41.5155 30.1301L38.7089 24.4402C38.6322 24.2844 38.5061 24.1583 38.3503 24.0816C37.9596 23.8887 37.4848 24.0495 37.2895 24.4402L34.4828 30.1301L28.2044 31.0426C28.0313 31.0673 27.873 31.1489 27.7518 31.2725C27.6054 31.4231 27.5246 31.6257 27.5274 31.8357C27.5302 32.0457 27.6163 32.2461 27.7667 32.3927L32.3092 36.8215L31.236 43.0753C31.2109 43.2207 31.227 43.3703 31.2825 43.5071C31.338 43.6439 31.4308 43.7624 31.5502 43.8492C31.6697 43.9359 31.8111 43.9875 31.9583 43.998C32.1056 44.0085 32.2529 43.9775 32.3834 43.9086L37.9992 40.9561L43.6149 43.9086C43.7682 43.9902 43.9463 44.0174 44.1169 43.9877C44.5472 43.9135 44.8365 43.5055 44.7623 43.0753L43.6891 36.8215L48.2316 32.3927C48.3553 32.2716 48.4369 32.1133 48.4616 31.9402C48.5284 31.5075 48.2267 31.1069 47.794 31.0426ZM41.7776 36.1984L42.6703 41.3987L37.9992 38.9457L33.328 41.4012L34.2207 36.2008L30.4423 32.5164L35.6648 31.7572L37.9992 27.0267L40.3335 31.7572L45.5561 32.5164L41.7776 36.1984Z" fill="black"/>
</svg>
