<svg width="20" height="22" viewBox="0 0 20 22" fill="none"
    xmlns="http://www.w3.org/2000/svg">
    <path fill-rule="evenodd" clipRule="evenodd" d="M9.7539 0.693359C6.89931 0.693359 4.18848 2.96126 4.00503 5.89658C3.76498 9.73757 2.71024 11.369 1.92462 12.3955C1.84754 12.4962 1.7604 12.6067 1.67292 12.7177C1.54956 12.8741 1.42552 13.0314 1.32808 13.1633C1.14481 13.4113 0.96154 13.6891 0.838609 14.0064C0.564723 14.7136 0.65838 15.4295 1.08304 16.2788C1.36766 16.848 1.89282 17.2698 2.47286 17.5862C3.0632 17.9082 3.78517 18.1618 4.57198 18.3585C5.32506 18.5467 6.16124 18.6887 7.0384 18.7855C7.26774 20.2147 8.50655 21.3065 10.0004 21.3065C11.4939 21.3065 12.7325 20.2151 12.9622 18.7863C13.842 18.6894 14.6807 18.5473 15.4358 18.3585C16.2226 18.1618 16.9446 17.9082 17.5349 17.5862C18.1149 17.2698 18.6401 16.848 18.9247 16.2788C19.3435 15.4411 19.4387 14.7353 19.154 14.0377C19.0276 13.7282 18.8412 13.4592 18.6587 13.2215C18.5663 13.1012 18.4665 12.9784 18.3688 12.858L18.3651 12.8535C18.2666 12.7323 18.1677 12.6105 18.0657 12.4797C17.2884 11.4825 16.235 9.84632 16.0027 5.89929C15.9042 4.2247 15.0102 2.90951 13.8256 2.0317C12.6505 1.16091 11.1594 0.693359 9.7539 0.693359ZM5.50211 5.99014C5.63115 3.92546 7.60859 2.19336 9.7539 2.19336C10.8483 2.19336 12.0242 2.56371 12.9326 3.23686C13.8315 3.90299 14.4376 4.8378 14.5053 5.98742C14.7557 10.2422 15.9212 12.1683 16.8826 13.4018C16.994 13.5448 17.1012 13.6767 17.1977 13.7955L17.2046 13.804C17.3049 13.9273 17.3913 14.0339 17.4689 14.135C17.6265 14.3402 17.7154 14.4826 17.7652 14.6046C17.8328 14.7701 17.8831 15.0078 17.5831 15.608C17.4927 15.7887 17.2679 16.0232 16.8166 16.2693C16.3757 16.5098 15.7852 16.725 15.072 16.9033C13.6475 17.2594 11.8366 17.4434 10.0039 17.4434C8.1712 17.4434 6.36031 17.2594 4.93578 16.9033C4.22259 16.725 3.63205 16.5098 3.19113 16.2693C2.73991 16.0232 2.51507 15.7887 2.42468 15.6079C2.12131 15.0012 2.16342 14.7391 2.23735 14.5482C2.28833 14.4166 2.37882 14.2653 2.5345 14.0546C2.62842 13.9275 2.71863 13.8136 2.82154 13.6837C2.90755 13.5751 3.00244 13.4553 3.11579 13.3072C4.06905 12.0616 5.24219 10.1491 5.50211 5.99014Z" fill="#ABADBA"/>
</svg>
