<svg width="18" height="21" viewBox="0 0 18 21" fill="none" xmlns="http://www.w3.org/2000/svg">
<path d="M9.53947 15.1456H15.0748C16.0829 15.1456 16.8749 14.1759 16.8749 13.0157V3.88979C16.8749 2.72967 16.0829 1.75995 15.0748 1.75995H2.92406C1.916 1.75995 1.12395 2.72967 1.12395 3.88979V13.0157C1.12395 14.1759 1.916 15.1456 2.92406 15.1456H4.72417V19.4406H4.72755L4.7298 19.4393L9.53947 15.1456ZM5.39921 20.5327C5.15961 20.7458 4.86044 20.8368 4.56595 20.7862C4.27145 20.7356 4.00511 20.5474 3.82412 20.2621C3.67931 20.0312 3.60071 19.7494 3.60023 19.4597V16.5056H2.92518C1.30958 16.5056 7.24374e-07 14.9429 7.24374e-07 13.0157V3.88979C-0.00112435 1.9626 1.30846 0.399902 2.92406 0.399902H15.0748C16.6904 0.399902 18 1.9626 18 3.88979V13.0157C18 14.9443 16.6904 16.5056 15.0748 16.5056H9.91075L5.39921 20.5327Z" fill="#ABADBA"/>
</svg>
