<svg width="17" height="18" viewBox="0 0 17 18" fill="none"
    xmlns="http://www.w3.org/2000/svg">
    <path fill-rule="evenodd" clipRule="evenodd" d="M16.4127 8.58736L8.91288 1.08751C8.85872 1.03326 8.79425 0.990063 8.72345 0.960683C8.65258 0.931275 8.5766 0.916138 8.49988 0.916138C8.42315 0.916138 8.34717 0.931275 8.2763 0.960683C8.2055 0.990063 8.14103 1.03326 8.08688 1.08751L0.587024 8.58736C0.477529 8.69686 0.416016 8.84537 0.416016 9.00022C0.416016 9.15506 0.477529 9.30357 0.587024 9.41307C0.696519 9.52256 0.845026 9.58407 0.999875 9.58407C1.15472 9.58407 1.30323 9.52256 1.41273 9.41307L2.08321 8.74258V14.8336C2.08321 15.4303 2.32026 16.0026 2.74222 16.4245C3.16418 16.8465 3.73647 17.0836 4.33321 17.0836H12.6665C13.2633 17.0836 13.8356 16.8465 14.2575 16.4245C14.6795 16.0026 14.9165 15.4303 14.9165 14.8336V8.74259L15.587 9.41307C15.6965 9.52256 15.845 9.58407 15.9999 9.58407C16.1547 9.58407 16.3032 9.52256 16.4127 9.41307C16.5222 9.30357 16.5837 9.15506 16.5837 9.00022C16.5837 8.84537 16.5222 8.69686 16.4127 8.58736ZM8.49988 2.32592L13.7499 7.57592V14.8336C13.7499 15.1209 13.6357 15.3964 13.4326 15.5996C13.2294 15.8027 12.9539 15.9169 12.6665 15.9169H10.9617C10.9865 15.8379 10.9999 15.7539 10.9999 15.6667V10.6667C10.9999 10.2065 10.6268 9.83337 10.1665 9.83337H7.66653C7.2063 9.83337 6.8332 10.2065 6.8332 10.6667V15.6667C6.8332 15.7539 6.84658 15.8379 6.87141 15.9169H4.33321C4.04589 15.9169 3.77034 15.8027 3.56718 15.5996C3.36401 15.3964 3.24988 15.1209 3.24988 14.8336V7.57592L8.49988 2.32592ZM7.8332 15.5V10.8334H9.99987V15.5H7.8332Z" fill="#fff"/>
</svg>
