<svg width="42" height="42" viewBox="0 0 42 42" fill="none" xmlns="http://www.w3.org/2000/svg">
<g filter="url(#filter0_d_2665_27889)">
<path d="M5 21C5 12.1634 12.1634 5 21 5C29.8366 5 37 12.1634 37 21C37 29.8366 29.8366 37 21 37C12.1634 37 5 29.8366 5 21Z" fill="#30323B"/>
<path d="M14.5908 29.3327C14.0424 29.3327 13.5848 29.1493 13.2182 28.7827C12.8515 28.416 12.6678 27.9581 12.667 27.4089V24.5243H13.8575V27.4089C13.8575 27.5922 13.9337 27.7605 14.086 27.9136C14.2384 28.0668 14.4063 28.143 14.5896 28.1422H27.411C27.5936 28.1422 27.7614 28.066 27.9146 27.9136C28.0678 27.7613 28.144 27.593 28.1432 27.4089V24.5243H29.3337V27.4089C29.3337 27.9573 29.1503 28.4148 28.7837 28.7815C28.417 29.1482 27.9591 29.3319 27.4099 29.3327H14.5908Z" fill="#E3E4E8"/>
<path d="M25.2134 16.8779L21.0003 12.666L16.7872 16.8779L17.6313 17.7339L20.4051 14.9601L20.4051 25.2577H21.5956L21.5956 14.9601L24.3706 17.7351L25.2134 16.8779Z" fill="#E3E4E8"/>
</g>
<defs>
<filter id="filter0_d_2665_27889" x="0" y="0" width="42" height="42" filterUnits="userSpaceOnUse" color-interpolation-filters="sRGB">
<feFlood flood-opacity="0" result="BackgroundImageFix"/>
<feColorMatrix in="SourceAlpha" type="matrix" values="0 0 0 0 0 0 0 0 0 0 0 0 0 0 0 0 0 0 127 0" result="hardAlpha"/>
<feOffset/>
<feGaussianBlur stdDeviation="2.5"/>
<feColorMatrix type="matrix" values="0 0 0 0 0 0 0 0 0 0 0 0 0 0 0 0 0 0 0.4 0"/>
<feBlend mode="normal" in2="BackgroundImageFix" result="effect1_dropShadow_2665_27889"/>
<feBlend mode="normal" in="SourceGraphic" in2="effect1_dropShadow_2665_27889" result="shape"/>
</filter>
</defs>
</svg>
