<svg width="16" height="8" viewBox="0 0 16 8" fill="none"
    xmlns="http://www.w3.org/2000/svg">
    <path d="M15.9682 7.80156L8.54538 0.20625C8.27592 -0.06875 7.72437 -0.06875 7.45701 0.20625L0.0321296 7.80156C0.0138576 7.82024 0.00291175 7.84231 0.000505066 7.86533C-0.00190162 7.88834 0.00432498 7.9114 0.0184947 7.93195C0.0326645 7.9525 0.0542238 7.96973 0.0807831 7.98175C0.107342 7.99376 0.137864 8.00007 0.168965 8H1.74783C1.85519 8 1.95624 7.96094 2.0194 7.89687L8.00014 1.77812L13.9809 7.89687C14.044 7.96094 14.1451 8 14.2525 8H15.8313C15.9682 8 16.0482 7.88437 15.9682 7.80156Z" fill="white"/>
</svg>
