<svg width="42" height="42" viewBox="0 0 42 42" fill="none" xmlns="http://www.w3.org/2000/svg">
<g filter="url(#filter0_d_2767_54318)">
<path d="M5 21C5 12.1634 12.1634 5 21 5C29.8366 5 37 12.1634 37 21C37 29.8366 29.8366 37 21 37C12.1634 37 5 29.8366 5 21Z" fill="#F9FAFA"/>
<path d="M15.8721 27.6663C15.4333 27.6663 15.0673 27.5197 14.774 27.2263C14.4806 26.933 14.3336 26.5667 14.333 26.1273V23.8197H15.2854V26.1273C15.2854 26.274 15.3463 26.4086 15.4682 26.5311C15.5902 26.6536 15.7244 26.7146 15.8711 26.714H26.1282C26.2743 26.714 26.4086 26.653 26.5311 26.5311C26.6536 26.4092 26.7146 26.2746 26.714 26.1273V23.8197H27.6663V26.1273C27.6663 26.566 27.5197 26.9321 27.2263 27.2254C26.933 27.5187 26.5667 27.6657 26.1273 27.6663H15.8721Z" fill="#2E3138"/>
<path d="M24.3701 17.7025L20.9997 14.333L17.6292 17.7025L18.3044 18.3873L20.5235 16.1682L20.5235 24.4063H21.4759L21.4759 16.1682L23.6959 18.3882L24.3701 17.7025Z" fill="#2E3138"/>
</g>
<defs>
<filter id="filter0_d_2767_54318" x="0" y="0" width="42" height="42" filterUnits="userSpaceOnUse" color-interpolation-filters="sRGB">
<feFlood flood-opacity="0" result="BackgroundImageFix"/>
<feColorMatrix in="SourceAlpha" type="matrix" values="0 0 0 0 0 0 0 0 0 0 0 0 0 0 0 0 0 0 127 0" result="hardAlpha"/>
<feOffset/>
<feGaussianBlur stdDeviation="2.5"/>
<feColorMatrix type="matrix" values="0 0 0 0 0 0 0 0 0 0 0 0 0 0 0 0 0 0 0.4 0"/>
<feBlend mode="normal" in2="BackgroundImageFix" result="effect1_dropShadow_2767_54318"/>
<feBlend mode="normal" in="SourceGraphic" in2="effect1_dropShadow_2767_54318" result="shape"/>
</filter>
</defs>
</svg>
