<svg width="28" height="29" viewBox="0 0 28 29" fill="none"
    xmlns="http://www.w3.org/2000/svg">
    <path d="M0.5 14.5C0.5 7.04416 6.54416 1 14 1C21.4558 1 27.5 7.04416 27.5 14.5C27.5 21.9558 21.4558 28 14 28C6.54416 28 0.5 21.9558 0.5 14.5Z" stroke="#40424E"/>
    <path fill-rule="evenodd" clipRule="evenodd" d="M17.0896 8.9107C17.415 9.23614 17.415 9.76378 17.0896 10.0892L12.6788 14.5L17.0896 18.9107C17.415 19.2361 17.415 19.7638 17.0896 20.0892C16.7641 20.4147 16.2365 20.4147 15.9111 20.0892L10.9111 15.0892C10.5856 14.7638 10.5856 14.2361 10.9111 13.9107L15.9111 8.9107C16.2365 8.58527 16.7641 8.58527 17.0896 8.9107Z" fill="#575A6A"/>
</svg>
