<svg width="17" height="19" viewBox="0 0 17 19" fill="none" xmlns="http://www.w3.org/2000/svg">
<path d="M4.41703 9.0364V5.37628C4.41703 5.15808 4.49329 4.97189 4.64582 4.81771C4.7977 4.66353 4.98254 4.58644 5.20034 4.58644C5.41814 4.58644 5.60298 4.66353 5.75486 4.81771C5.90739 4.97189 5.98365 5.15808 5.98365 5.37628V9.0364C5.98365 9.25461 5.90739 9.4408 5.75486 9.59498C5.60234 9.74916 5.4175 9.82625 5.20034 9.82625C4.98319 9.82625 4.79835 9.74916 4.64582 9.59498C4.49329 9.4408 4.41703 9.25461 4.41703 9.0364ZM8.6312 10.3211V1.45843C8.6312 1.23892 8.70714 1.05207 8.85902 0.897895C9.01155 0.743716 9.19639 0.666626 9.41354 0.666626C9.63134 0.666626 9.81618 0.743716 9.96806 0.897895C10.1206 1.05207 10.1969 1.23892 10.1969 1.45843V10.3211C10.1969 10.5851 10.1167 10.783 9.95643 10.915C9.7955 11.0469 9.61551 11.1129 9.41645 11.1129C9.21739 11.1129 9.03643 11.0469 8.87356 10.915C8.71069 10.783 8.62991 10.5851 8.6312 10.3211ZM0.166992 12.4202V9.29805C0.166992 9.07854 0.242932 8.8917 0.394811 8.73752C0.547337 8.58334 0.732501 8.50625 0.950302 8.50625C1.1681 8.50625 1.35294 8.58334 1.50482 8.73752C1.6567 8.8917 1.73264 9.07854 1.73264 9.29805V12.4212C1.73264 12.6851 1.6525 12.8827 1.49222 13.014C1.33194 13.146 1.15195 13.212 0.952241 13.212C0.753182 13.212 0.572219 13.146 0.409353 13.014C0.247779 12.8827 0.166992 12.6851 0.166992 12.4212M1.21884 18.1666C1.00233 18.1666 0.852711 18.067 0.769986 17.8677C0.68726 17.6691 0.724745 17.4898 0.882441 17.3297L4.67103 13.5011C4.81127 13.3587 4.98416 13.2793 5.18968 13.2629C5.3952 13.2466 5.57778 13.3097 5.73741 13.4521L8.6312 15.9657L15.1779 9.34705H13.4406C13.3029 9.34705 13.1879 9.30001 13.0955 9.20594C13.0031 9.11186 12.9565 8.99525 12.9559 8.85609C12.9552 8.71694 13.0018 8.60065 13.0955 8.50723C13.1892 8.41381 13.3042 8.3671 13.4406 8.3671H16.0503C16.2727 8.3671 16.4588 8.44288 16.6087 8.59445C16.7587 8.74601 16.8337 8.93416 16.8337 9.1589V11.7969C16.8337 11.9361 16.7871 12.0524 16.6941 12.1458C16.601 12.2392 16.4856 12.2863 16.348 12.2869C16.2103 12.2876 16.0953 12.2405 16.0028 12.1458C15.9104 12.0511 15.8642 11.9348 15.8642 11.7969V10.0409L9.17118 16.8065C9.03094 16.9482 8.85805 17.0273 8.65253 17.0436C8.44701 17.0599 8.26443 16.9969 8.10479 16.8545L5.21101 14.3409L1.56881 18.0236C1.52744 18.0628 1.47542 18.0964 1.41273 18.1245C1.35004 18.1526 1.28541 18.1666 1.21884 18.1666Z" fill="white"/>
</svg>
