<svg width="24" height="24" viewBox="0 0 24 24" fill="none" xmlns="http://www.w3.org/2000/svg">
<g id="icon/outlined/application/more">
<path id="Vector" d="M5.41406 13.3125C5.76216 13.3125 6.096 13.1742 6.34214 12.9281C6.58828 12.6819 6.72656 12.3481 6.72656 12C6.72656 11.6519 6.58828 11.3181 6.34214 11.0719C6.096 10.8258 5.76216 10.6875 5.41406 10.6875C5.06597 10.6875 4.73213 10.8258 4.48598 11.0719C4.23984 11.3181 4.10156 11.6519 4.10156 12C4.10156 12.3481 4.23984 12.6819 4.48598 12.9281C4.73213 13.1742 5.06597 13.3125 5.41406 13.3125ZM11.9766 13.3125C12.3247 13.3125 12.6585 13.1742 12.9046 12.9281C13.1508 12.6819 13.2891 12.3481 13.2891 12C13.2891 11.6519 13.1508 11.3181 12.9046 11.0719C12.6585 10.8258 12.3247 10.6875 11.9766 10.6875C11.6285 10.6875 11.2946 10.8258 11.0485 11.0719C10.8023 11.3181 10.6641 11.6519 10.6641 12C10.6641 12.3481 10.8023 12.6819 11.0485 12.9281C11.2946 13.1742 11.6285 13.3125 11.9766 13.3125ZM18.5391 13.3125C18.8872 13.3125 19.221 13.1742 19.4671 12.9281C19.7133 12.6819 19.8516 12.3481 19.8516 12C19.8516 11.6519 19.7133 11.3181 19.4671 11.0719C19.221 10.8258 18.8872 10.6875 18.5391 10.6875C18.191 10.6875 17.8571 10.8258 17.611 11.0719C17.3648 11.3181 17.2266 11.6519 17.2266 12C17.2266 12.3481 17.3648 12.6819 17.611 12.9281C17.8571 13.1742 18.191 13.3125 18.5391 13.3125Z" fill="#42A732"/>
</g>
</svg>
