<svg width="17" height="16" viewBox="0 0 17 16" fill="none"
    xmlns="http://www.w3.org/2000/svg">
    <path fill-rule="evenodd" clipRule="evenodd" d="M0.5 1.33337C0.5 1.05723 0.723858 0.833374 1 0.833374H12.6667C12.9428 0.833374 13.1667 1.05723 13.1667 1.33337V4.16671H16C16.2761 4.16671 16.5 4.39056 16.5 4.66671V13C16.5 13.5747 16.2717 14.1258 15.8654 14.5321C15.4591 14.9384 14.908 15.1667 14.3333 15.1667H2.66667C2.09203 15.1667 1.54093 14.9384 1.1346 14.5321C0.728273 14.1258 0.5 13.5747 0.5 13V1.33337ZM12.5076 14.1667H2.66667C2.35725 14.1667 2.0605 14.0438 1.84171 13.825C1.62292 13.6062 1.5 13.3095 1.5 13V1.83337H12.1667V13C12.1667 13.4167 12.2867 13.821 12.5076 14.1667ZM13.1667 5.16671V13C13.1667 13.3095 13.2896 13.6062 13.5084 13.825C13.7272 14.0438 14.0239 14.1667 14.3333 14.1667C14.6428 14.1667 14.9395 14.0438 15.1583 13.825C15.3771 13.6062 15.5 13.3095 15.5 13V5.16671H13.1667ZM3.83333 4.66671C3.83333 4.39056 4.05719 4.16671 4.33333 4.16671H9.33333C9.60948 4.16671 9.83333 4.39056 9.83333 4.66671C9.83333 4.94285 9.60948 5.16671 9.33333 5.16671H4.33333C4.05719 5.16671 3.83333 4.94285 3.83333 4.66671ZM5.5 8.00004C5.5 7.7239 5.72386 7.50004 6 7.50004H9.33333C9.60948 7.50004 9.83333 7.7239 9.83333 8.00004C9.83333 8.27618 9.60948 8.50004 9.33333 8.50004H6C5.72386 8.50004 5.5 8.27618 5.5 8.00004Z" fill="white"/>
</svg>
