<svg width="32" height="32" viewBox="0 0 32 32" fill="none"
    xmlns="http://www.w3.org/2000/svg">
    <path fill-rule="evenodd" clipRule="evenodd" d="M27.3333 24.2667H4.66667C2.97299 24.2667 1.6 25.6397 1.6 27.3333C1.6 29.027 2.97299 30.4 4.66667 30.4H27.3333C29.027 30.4 30.4 29.027 30.4 27.3333C30.4 25.6397 29.027 24.2667 27.3333 24.2667ZM4.66667 22.6667C2.08934 22.6667 0 24.756 0 27.3333C0 29.9107 2.08934 32 4.66667 32H27.3333C29.9107 32 32 29.9107 32 27.3333C32 24.756 29.9107 22.6667 27.3333 22.6667H4.66667Z" fill="#ABADBA"/>
    <path d="M4.99756 27.3333C4.99756 28.0697 4.40061 28.6667 3.66423 28.6667C2.92785 28.6667 2.33089 28.0697 2.33089 27.3333C2.33089 26.597 2.92785 26 3.66423 26C4.40061 26 4.99756 26.597 4.99756 27.3333Z" fill="#ABADBA"/>
    <path d="M13.2648 27.3333C13.2648 28.0697 12.6679 28.6667 11.9315 28.6667C11.1951 28.6667 10.5981 28.0697 10.5981 27.3333C10.5981 26.597 11.1951 26 11.9315 26C12.6679 26 13.2648 26.597 13.2648 27.3333Z" fill="#ABADBA"/>
    <path d="M21.5373 27.3333C21.5373 28.0697 20.9403 28.6667 20.2039 28.6667C19.4676 28.6667 18.8706 28.0697 18.8706 27.3333C18.8706 26.597 19.4676 26 20.2039 26C20.9403 26 21.5373 26.597 21.5373 27.3333Z" fill="#ABADBA"/>
    <path d="M29.8361 27.3333C29.8361 28.0697 29.2391 28.6667 28.5028 28.6667C27.7664 28.6667 27.1694 28.0697 27.1694 27.3333C27.1694 26.597 27.7664 26 28.5028 26C29.2391 26 29.8361 26.597 29.8361 27.3333Z" fill="#ABADBA"/>
    <path fill-rule="evenodd" clipRule="evenodd" d="M16.3316 7.39848C15.6369 7.39848 14.9586 7.69353 14.4495 8.2388C13.9386 8.78593 13.6429 9.53902 13.6429 10.3348C13.6429 11.1306 13.9386 11.8837 14.4495 12.4308C14.9586 12.9761 15.6369 13.2712 16.3316 13.2712C17.0263 13.2712 17.7046 12.9761 18.2137 12.4308C18.7246 11.8837 19.0203 11.1306 19.0203 10.3348C19.0203 9.53902 18.7246 8.78593 18.2137 8.2388C17.7046 7.69353 17.0263 7.39848 16.3316 7.39848ZM13.28 7.14685C14.0794 6.29073 15.1758 5.79848 16.3316 5.79848C17.4874 5.79848 18.5838 6.29073 19.3832 7.14685C20.1809 8.00113 20.6203 9.14874 20.6203 10.3348C20.6203 11.5209 20.1809 12.6685 19.3832 13.5228C18.5838 14.3789 17.4874 14.8712 16.3316 14.8712C15.1758 14.8712 14.0794 14.3789 13.28 13.5228C12.4823 12.6685 12.0429 11.5209 12.0429 10.3348C12.0429 9.14874 12.4823 8.00113 13.28 7.14685Z" fill="#ABADBA"/>
    <path fill-rule="evenodd" clipRule="evenodd" d="M13.8104 1.6H17.3091V0H13.7115C13.0658 0 12.496 0.422335 12.3083 1.04017L11.729 2.94622L10.0321 2.39829C9.38638 2.18978 8.68195 2.45141 8.3289 3.03087L6.02327 6.81506C5.67517 7.3864 5.75782 8.12089 6.22419 8.60057L7.59592 10.0115L6.27303 12.1502C5.99308 12.6027 5.98025 13.1715 6.23949 13.6362L8.32571 17.3761C8.66145 17.978 9.37096 18.2649 10.0307 18.0656L11.7145 17.557L12.3096 19.6111C12.4912 20.2381 13.0655 20.6696 13.7183 20.6696H17.3872V19.0696H13.8185L13.2137 16.9822C12.9865 16.198 12.1625 15.7503 11.3809 15.9864L9.67074 16.503L7.67498 12.9252L9.01138 10.7647C9.36526 10.1926 9.28457 9.45308 8.81563 8.97075L7.4434 7.55932L9.64053 3.9532L11.3664 4.51049C12.1467 4.76245 12.9819 4.32579 13.2204 3.54128L13.8104 1.6Z" fill="#ABADBA"/>
    <path fill-rule="evenodd" clipRule="evenodd" d="M15.7871 3.17891e-07H18.8198C19.4656 3.17891e-07 20.0353 0.422335 20.2231 1.04017L20.8024 2.94622L22.8844 2.27392C23.3043 2.13834 23.7623 2.30847 23.9919 2.68525L26.7149 7.15455C26.9413 7.52605 26.8875 8.00364 26.5843 8.31554L24.9354 10.0115L26.417 12.4066C26.599 12.7009 26.6073 13.0707 26.4388 13.3729L24.0045 17.7367C23.7862 18.128 23.3249 18.3146 22.8959 18.185L20.8169 17.557L20.2218 19.6111C20.0401 20.2381 19.4659 20.6696 18.8131 20.6696H16.4245V19.0696H18.7129L19.462 16.4839C19.6098 15.9739 20.1456 15.6828 20.6538 15.8363L22.8606 16.503L24.8564 12.9252L23.3094 10.4242C23.0793 10.0522 23.1318 9.57139 23.4367 9.25777L25.088 7.55932L22.8908 3.9532L20.6683 4.67088C20.1609 4.83471 19.6178 4.55078 19.4628 4.04067L18.721 1.6H15.7871V3.17891e-07Z" fill="#ABADBA"/>
</svg>
