<svg width="12" height="12" viewBox="0 0 12 12" fill="none" xmlns="http://www.w3.org/2000/svg">
<g id="Arrow / Arrow_Reload_02">
<path id="Vector" d="M7 8H9.5V10.5M5 4H2.5V1.5M9.70878 4.5017C9.42843 3.80783 8.95906 3.20652 8.354 2.76611C7.74895 2.32571 7.03258 2.06376 6.28613 2.01025C5.53968 1.95675 4.79303 2.1137 4.13135 2.46331C3.46966 2.81291 2.91941 3.34127 2.54297 3.98806M2.29102 7.49854C2.57136 8.19241 3.04073 8.79372 3.64579 9.23412C4.25084 9.67453 4.96794 9.93614 5.71439 9.98965C6.46084 10.0432 7.20688 9.88623 7.86856 9.53662C8.53025 9.18702 9.08013 8.65876 9.45657 8.01196" stroke="white" stroke-width="1.25" stroke-linecap="round" stroke-linejoin="round"/>
</g>
</svg>
