<svg width="16" height="16" viewBox="0 0 16 16" fill="none" xmlns="http://www.w3.org/2000/svg">
<path d="M8.59399 3.91992H3.40731C2.26731 3.91992 1.33398 4.85325 1.33398 5.99325V13.5666C1.33398 14.5333 2.02732 14.9466 2.87398 14.4732L5.49398 13.0132C5.77398 12.8599 6.22732 12.8599 6.50065 13.0132L9.12065 14.4732C9.96731 14.9466 10.6606 14.5333 10.6606 13.5666V5.99325C10.6673 4.85325 9.73399 3.91992 8.59399 3.91992Z" stroke="white" stroke-width="1.5" stroke-linecap="round" stroke-linejoin="round"/>
<path d="M10.6673 5.99325V13.5666C10.6673 14.5333 9.97399 14.9399 9.12732 14.4732L6.50732 13.0132C6.22732 12.8599 5.77398 12.8599 5.49398 13.0132L2.87398 14.4732C2.02732 14.9399 1.33398 14.5333 1.33398 13.5666V5.99325C1.33398 4.85325 2.26731 3.91992 3.40731 3.91992H8.59399C9.73399 3.91992 10.6673 4.85325 10.6673 5.99325Z" stroke="white" stroke-width="1.5" stroke-linecap="round" stroke-linejoin="round"/>
<path d="M14.6673 3.40633V10.9797C14.6673 11.9463 13.974 12.353 13.1273 11.8863L10.6673 10.513V5.993C10.6673 4.853 9.73399 3.91968 8.59399 3.91968H5.33398V3.40633C5.33398 2.26633 6.26731 1.33301 7.40731 1.33301H12.594C13.734 1.33301 14.6673 2.26633 14.6673 3.40633Z" stroke="white" stroke-width="1.5" stroke-linecap="round" stroke-linejoin="round"/>
</svg>
