<svg width="18" height="18" viewBox="0 0 18 18" fill="none"
    xmlns="http://www.w3.org/2000/svg">
    <path fill-rule="evenodd" clipRule="evenodd" d="M8.16667 2.125C4.82995 2.125 2.125 4.82995 2.125 8.16667C2.125 11.5034 4.82995 14.2083 8.16667 14.2083C9.80051 14.2083 11.2829 13.5598 12.3704 12.5061C12.3891 12.4806 12.41 12.4561 12.4331 12.4331C12.4561 12.41 12.4806 12.3891 12.5061 12.3704C13.5598 11.2829 14.2083 9.80051 14.2083 8.16667C14.2083 4.82995 11.5034 2.125 8.16667 2.125ZM13.7457 12.8619C14.8144 11.5933 15.4583 9.95519 15.4583 8.16667C15.4583 4.13959 12.1937 0.875 8.16667 0.875C4.13959 0.875 0.875 4.13959 0.875 8.16667C0.875 12.1937 4.13959 15.4583 8.16667 15.4583C9.95519 15.4583 11.5933 14.8144 12.8619 13.7457L16.0581 16.9419C16.3021 17.186 16.6979 17.186 16.9419 16.9419C17.186 16.6979 17.186 16.3021 16.9419 16.0581L13.7457 12.8619Z" fill="white"/>
</svg>
