<svg width="25" height="25" viewBox="0 0 25 25" fill="none" xmlns="http://www.w3.org/2000/svg">
<path d="M12.8342 7.63123C12.1948 7.63123 11.5617 7.75717 10.9709 8.00186C10.3802 8.24655 9.84344 8.6052 9.39131 9.05732C8.93918 9.50945 8.58053 10.0462 8.33584 10.6369C8.09115 11.2277 7.96521 11.8608 7.96521 12.5002C7.96521 13.1396 8.09115 13.7728 8.33584 14.3635C8.58053 14.9542 8.93918 15.491 9.39131 15.9431C9.84344 16.3953 10.3802 16.7539 10.9709 16.9986C11.5617 17.2433 12.1948 17.3692 12.8342 17.3692C14.1255 17.3692 15.364 16.8562 16.2771 15.9431C17.1902 15.03 17.7032 13.7916 17.7032 12.5002C17.7032 11.2089 17.1902 9.97044 16.2771 9.05732C15.364 8.14421 14.1255 7.63123 12.8342 7.63123ZM9.46521 12.5002C9.46521 11.6067 9.82016 10.7498 10.452 10.118C11.0838 9.48617 11.9407 9.13123 12.8342 9.13123C13.7277 9.13123 14.5846 9.48617 15.2165 10.118C15.8483 10.7498 16.2032 11.6067 16.2032 12.5002C16.2032 13.3937 15.8483 14.2507 15.2165 14.8825C14.5846 15.5143 13.7277 15.8692 12.8342 15.8692C11.9407 15.8692 11.0838 15.5143 10.452 14.8825C9.82016 14.2507 9.46521 13.3937 9.46521 12.5002Z" fill="#818498"/>
<path d="M15.5282 2.51473C14.7377 -0.170273 10.9307 -0.170273 10.1402 2.51473L9.99921 2.99323C9.94401 3.18065 9.84756 3.35335 9.71694 3.49866C9.58631 3.64397 9.42483 3.75821 9.24432 3.833C9.06382 3.9078 8.86886 3.94125 8.67374 3.9309C8.47863 3.92056 8.2883 3.86668 8.11671 3.77323L7.67871 3.53323C5.21871 2.19523 2.52921 4.88623 3.86871 7.34473L4.10721 7.78273C4.20067 7.95431 4.25454 8.14464 4.26489 8.33976C4.27523 8.53487 4.24178 8.72983 4.16699 8.91034C4.0922 9.09085 3.97796 9.25233 3.83265 9.38295C3.68734 9.51357 3.51464 9.61002 3.32721 9.66523L2.84871 9.80623C0.163711 10.5967 0.163711 14.4037 2.84871 15.1942L3.32721 15.3352C3.51464 15.3904 3.68734 15.4869 3.83265 15.6175C3.97796 15.7481 4.0922 15.9096 4.16699 16.0901C4.24178 16.2706 4.27523 16.4656 4.26489 16.6607C4.25454 16.8558 4.20067 17.0461 4.10721 17.2177L3.86721 17.6557C2.52921 20.1157 5.21871 22.8067 7.67871 21.4657L8.11671 21.2272C8.2883 21.1338 8.47863 21.0799 8.67374 21.0695C8.86886 21.0592 9.06382 21.0927 9.24432 21.1674C9.42483 21.2422 9.58631 21.3565 9.71694 21.5018C9.84756 21.6471 9.94401 21.8198 9.99921 22.0072L10.1402 22.4857C10.9307 25.1707 14.7377 25.1707 15.5282 22.4857L15.6692 22.0072C15.7244 21.8198 15.8209 21.6471 15.9515 21.5018C16.0821 21.3565 16.2436 21.2422 16.4241 21.1674C16.6046 21.0927 16.7996 21.0592 16.9947 21.0695C17.1898 21.0799 17.3801 21.1338 17.5517 21.2272L17.9897 21.4672C20.4497 22.8067 23.1407 20.1142 21.7997 17.6557L21.5612 17.2177C21.4678 17.0461 21.4139 16.8558 21.4035 16.6607C21.3932 16.4656 21.4266 16.2706 21.5014 16.0901C21.5762 15.9096 21.6905 15.7481 21.8358 15.6175C21.9811 15.4869 22.1538 15.3904 22.3412 15.3352L22.8197 15.1942C25.5047 14.4037 25.5047 10.5967 22.8197 9.80623L22.3412 9.66523C22.1538 9.61002 21.9811 9.51357 21.8358 9.38295C21.6905 9.25233 21.5762 9.09085 21.5014 8.91034C21.4266 8.72983 21.3932 8.53487 21.4035 8.33976C21.4139 8.14464 21.4678 7.95431 21.5612 7.78273L21.8012 7.34473C23.1407 4.88473 20.4482 2.19523 17.9897 3.53473L17.5517 3.77323C17.3801 3.86668 17.1898 3.92056 16.9947 3.9309C16.7996 3.94125 16.6046 3.9078 16.4241 3.833C16.2436 3.75821 16.0821 3.64397 15.9515 3.49866C15.8209 3.35335 15.7244 3.18065 15.6692 2.99323L15.5282 2.51473ZM11.5787 2.93923C11.9477 1.68673 13.7207 1.68673 14.0897 2.93923L14.2307 3.41773C14.3492 3.81985 14.5563 4.19036 14.8366 4.50208C15.1169 4.81379 15.4635 5.05882 15.8508 5.2192C16.2382 5.37957 16.6565 5.45123 17.0751 5.42891C17.4938 5.40659 17.9021 5.29087 18.2702 5.09023L18.7067 4.85023C19.8527 4.22773 21.1067 5.48023 20.4827 6.62773L20.2442 7.06573C20.0439 7.43387 19.9284 7.84217 19.9064 8.26071C19.8843 8.67925 19.9561 9.09743 20.1166 9.4846C20.2771 9.87178 20.5222 10.2181 20.834 10.4983C21.1457 10.7785 21.5162 10.9853 21.9182 11.1037L22.3952 11.2447C23.6477 11.6137 23.6477 13.3867 22.3952 13.7557L21.9167 13.8967C21.5146 14.0153 21.1441 14.2223 20.8324 14.5026C20.5206 14.783 20.2756 15.1295 20.1152 15.5168C19.9549 15.9042 19.8832 16.3225 19.9055 16.7411C19.9278 17.1598 20.0436 17.5681 20.2442 17.9362L20.4842 18.3727C21.1067 19.5187 19.8542 20.7727 18.7067 20.1487L18.2702 19.9102C17.902 19.7096 17.4936 19.5939 17.0749 19.5717C16.6561 19.5495 16.2377 19.6213 15.8504 19.7818C15.463 19.9423 15.1165 20.1875 14.8362 20.4994C14.556 20.8113 14.3491 21.182 14.2307 21.5842L14.0897 22.0612C13.7207 23.3137 11.9477 23.3137 11.5787 22.0612L11.4377 21.5827C11.3191 21.1808 11.1121 20.8105 10.8319 20.4989C10.5517 20.1874 10.2053 19.9425 9.81815 19.7821C9.43099 19.6217 9.01287 19.55 8.59441 19.5722C8.17595 19.5944 7.76775 19.7099 7.39971 19.9102L6.96171 20.1502C5.81571 20.7727 4.56171 19.5202 5.18571 18.3727L5.42421 17.9362C5.62514 17.5681 5.74109 17.1596 5.76355 16.7408C5.78601 16.322 5.71442 15.9034 5.55403 15.5159C5.39363 15.1284 5.1485 14.7816 4.83663 14.5012C4.52475 14.2208 4.15405 14.0137 3.75171 13.8952L3.27321 13.7542C2.02071 13.3852 2.02071 11.6122 3.27321 11.2432L3.75171 11.1022C4.15342 10.9836 4.52352 10.7766 4.83492 10.4965C5.14633 10.2164 5.39116 9.87017 5.55149 9.48321C5.71183 9.09625 5.78361 8.67834 5.76159 8.26006C5.73956 7.84177 5.62429 7.43371 5.42421 7.06573L5.18421 6.62773C4.56171 5.48173 5.81421 4.22773 6.96171 4.85173L7.39971 5.09023C7.76775 5.29059 8.17595 5.40609 8.59441 5.42826C9.01287 5.45043 9.43099 5.37871 9.81815 5.21835C10.2053 5.058 10.5517 4.81307 10.8319 4.50151C11.1121 4.18995 11.3191 3.81964 11.4377 3.41773L11.5787 2.93923Z" fill="#818498"/>
</svg>
