<svg width="15" height="16" viewBox="0 0 15 16" fill="none" xmlns="http://www.w3.org/2000/svg">
<path d="M0 13.9859V2.01406C0 1.59781 0.148437 1.24156 0.445312 0.945312C0.742187 0.649062 1.09844 0.500625 1.51406 0.5H13.4859C13.9022 0.5 14.2584 0.648437 14.5547 0.945312C14.8509 1.24219 14.9994 1.59844 15 2.01406V13.9859C15 14.4022 14.8516 14.7584 14.5547 15.0547C14.2578 15.3509 13.9016 15.4994 13.4859 15.5H1.51406C1.09781 15.5 0.741562 15.3516 0.445312 15.0547C0.149062 14.7578 0.000625 14.4009 0 13.9859ZM0.9375 5.33281H14.0625V2.015C14.0625 1.84625 14.0084 1.70781 13.9003 1.59969C13.7922 1.49156 13.6541 1.4375 13.4859 1.4375H1.51406C1.34594 1.4375 1.20781 1.49156 1.09969 1.59969C0.991562 1.70781 0.9375 1.84625 0.9375 2.015V5.33281ZM5.62313 9.94812H9.37687V6.27031H5.62313V9.94812ZM5.62313 14.5634H9.37687V10.8856H5.62313V14.5634ZM0.9375 9.94719H4.68563V6.26938H0.9375V9.94719ZM10.3144 9.94719H14.0625V6.26938H10.3144V9.94719ZM1.515 14.5625H4.68563V10.8847H0.9375V13.9859C0.9375 14.1541 0.991562 14.2922 1.09969 14.4003C1.20781 14.5084 1.34625 14.5625 1.515 14.5625ZM10.3144 14.5625H13.485C13.6538 14.5625 13.7922 14.5084 13.9003 14.4003C14.0084 14.2922 14.0625 14.1541 14.0625 13.9859V10.8847H10.3144V14.5625Z" fill="white"/>
</svg>
