<svg width="32" height="32" viewBox="0 0 32 32" fill="none"
    xmlns="http://www.w3.org/2000/svg">
    <path fill-rule="evenodd" clipRule="evenodd" d="M16 8.5C16.8284 8.5 17.5 9.1709 17.5 9.9985V10.0135C17.5 10.8411 16.8284 11.512 16 11.512C15.1716 11.512 14.5 10.8411 14.5 10.0135V9.9985C14.5 9.1709 15.1716 8.5 16 8.5ZM16 14.494C16.8284 14.494 17.5 15.1649 17.5 15.9925V16.0075C17.5 16.8351 16.8284 17.506 16 17.506C15.1716 17.506 14.5 16.8351 14.5 16.0075V15.9925C14.5 15.1649 15.1716 14.494 16 14.494ZM16 20.488C16.8284 20.488 17.5 21.1589 17.5 21.9865V22.0015C17.5 22.8291 16.8284 23.5 16 23.5C15.1716 23.5 14.5 22.8291 14.5 22.0015V21.9865C14.5 21.1589 15.1716 20.488 16 20.488Z" fill="white"/>
</svg>
