<svg width="14" height="16" viewBox="0 0 14 16" fill="none" xmlns="http://www.w3.org/2000/svg">
<path d="M10.6997 2.85C10.1302 2.19961 9.81625 1.3645 9.81634 0.5H7.24134V10.8333C7.22189 11.3927 6.98594 11.9226 6.58326 12.3112C6.18059 12.6999 5.64267 12.917 5.08301 12.9167C3.89967 12.9167 2.91634 11.95 2.91634 10.75C2.91634 9.31667 4.29967 8.24167 5.72467 8.68333V6.05C2.84967 5.66667 0.333008 7.9 0.333008 10.75C0.333008 13.525 2.63301 15.5 5.07467 15.5C7.69134 15.5 9.81634 13.375 9.81634 10.75V5.50833C10.8605 6.25821 12.1141 6.66054 13.3997 6.65833V4.08333C13.3997 4.08333 11.833 4.15833 10.6997 2.85Z" fill="white"/>
</svg>
