<svg width="20" height="23" viewBox="0 0 20 23" fill="none" xmlns="http://www.w3.org/2000/svg">
<path d="M3.6846 0.700195C2.81357 0.700195 1.97822 1.05749 1.36231 1.69349C0.746405 2.32948 0.400391 3.19207 0.400391 4.0915V18.9089C0.400391 19.8083 0.746405 20.6709 1.36231 21.3069C1.97822 21.9429 2.81357 22.3002 3.6846 22.3002H18.8425C19.0435 22.3002 19.2363 22.2177 19.3784 22.071C19.5205 21.9242 19.6004 21.7251 19.6004 21.5176C19.6004 21.31 19.5205 21.111 19.3784 20.9642C19.2363 20.8174 19.0435 20.735 18.8425 20.735H3.6846C3.25937 20.735 2.84837 20.5767 2.52693 20.2893C2.20549 20.0018 1.99512 19.6044 1.93437 19.1698H18.8425C19.0435 19.1698 19.2363 19.0873 19.3784 18.9405C19.5205 18.7938 19.6004 18.5947 19.6004 18.3872V4.0915C19.6004 3.19207 19.2544 2.32948 18.6385 1.69349C18.0226 1.05749 17.1872 0.700195 16.3162 0.700195H3.6846ZM18.0846 17.6045H1.91618V4.0915C1.91618 3.0835 2.70843 2.26541 3.6846 2.26541H16.3162C17.2923 2.26541 18.0846 3.0835 18.0846 4.0915V17.6045ZM5.20039 4.35237C4.50313 4.35237 3.93723 4.93672 3.93723 5.65672V6.54367C3.93723 7.26367 4.50313 7.84802 5.20039 7.84802H14.8004C15.4977 7.84802 16.0635 7.26367 16.0635 6.54367V5.65672C16.0635 4.93672 15.4977 4.35237 14.8004 4.35237H5.20039Z" fill="#99BAFF"/>
</svg>
