<svg width="176" height="162" viewBox="0 0 176 162" fill="none"
    xmlns="http://www.w3.org/2000/svg">
    <path d="M124.515 155.17L122.826 154.542C121.426 154.059 120.364 152.949 119.833 151.598L119.206 149.908C119.206 149.86 119.109 149.812 119.061 149.812C119.013 149.812 118.916 149.86 118.916 149.908L118.289 151.598C117.758 152.949 116.696 154.059 115.296 154.542L113.606 155.17C113.558 155.17 113.51 155.266 113.51 155.314C113.51 155.363 113.558 155.459 113.606 155.459L115.296 156.087C116.696 156.569 117.758 157.68 118.289 159.031L118.916 160.721C118.916 160.769 119.013 160.817 119.061 160.817C119.109 160.817 119.206 160.769 119.206 160.721L119.833 159.031C120.364 157.68 121.426 156.569 122.826 156.087L124.515 155.459C124.564 155.459 124.612 155.363 124.612 155.314C124.612 155.266 124.564 155.17 124.515 155.17Z" stroke="#338DD8" stroke-width="1.5" stroke-linecap="round" stroke-linejoin="round"/>
    <path d="M95.6788 5.65266L94.2245 5.10775C93.0195 4.68859 92.1054 3.72453 91.6483 2.55088L91.1081 1.08383C91.1081 1.04192 91.025 1 90.9835 1C90.9419 1 90.8588 1.04192 90.8588 1.08383L90.3186 2.55088C89.8616 3.72453 88.9475 4.68859 87.7425 5.10775L86.2881 5.65266C86.2466 5.65266 86.2051 5.73649 86.2051 5.7784C86.2051 5.82032 86.2466 5.90415 86.2881 5.90415L87.7425 6.44906C88.9475 6.86822 89.8616 7.83228 90.3186 9.00593L90.8588 10.473C90.8588 10.5149 90.9419 10.5568 90.9835 10.5568C91.025 10.5568 91.1081 10.5149 91.1081 10.473L91.6483 9.00593C92.1054 7.83228 93.0195 6.86822 94.2245 6.44906L95.6788 5.90415C95.7204 5.90415 95.7619 5.82032 95.7619 5.7784C95.7619 5.73649 95.7204 5.65266 95.6788 5.65266Z" stroke="#0066B9" stroke-width="1.5" stroke-linecap="round" stroke-linejoin="round"/>
    <path d="M15.0077 92.5543L13.3182 91.9268C11.9183 91.4441 10.8564 90.3339 10.3254 88.9823L9.69787 87.2928C9.69787 87.2446 9.60133 87.1963 9.55306 87.1963C9.50479 87.1963 9.40826 87.2446 9.40826 87.2928L8.78071 88.9823C8.24973 90.3339 7.1878 91.4441 5.78795 91.9268L4.09844 92.5543C4.05017 92.5543 4.00195 92.6509 4.00195 92.6992C4.00195 92.7474 4.05017 92.844 4.09844 92.844L5.78795 93.4715C7.1878 93.9542 8.24973 95.0644 8.78071 96.416L9.40826 98.1055C9.40826 98.1537 9.50479 98.202 9.55306 98.202C9.60133 98.202 9.69787 98.1537 9.69787 98.1055L10.3254 96.416C10.8564 95.0644 11.9183 93.9542 13.3182 93.4715L15.0077 92.844C15.056 92.844 15.1042 92.7474 15.1042 92.6992C15.1042 92.6509 15.056 92.5543 15.0077 92.5543Z" stroke="#66AAE2" stroke-width="1.5" stroke-linecap="round" stroke-linejoin="round"/>
    <path d="M175.027 112.847L173.338 112.22C171.938 111.737 170.876 110.627 170.345 109.275L169.717 107.586C169.717 107.538 169.621 107.489 169.573 107.489C169.524 107.489 169.428 107.538 169.428 107.586L168.8 109.275C168.269 110.627 167.207 111.737 165.807 112.22L164.118 112.847C164.07 112.847 164.021 112.944 164.021 112.992C164.021 113.04 164.07 113.137 164.118 113.137L165.807 113.764C167.207 114.247 168.269 115.357 168.8 116.709L169.428 118.398C169.428 118.447 169.524 118.495 169.573 118.495C169.621 118.495 169.717 118.447 169.717 118.398L170.345 116.709C170.876 115.357 171.938 114.247 173.338 113.764L175.027 113.137C175.075 113.137 175.124 113.04 175.124 112.992C175.124 112.944 175.075 112.847 175.027 112.847Z" stroke="#338DD8" stroke-width="1.5" stroke-linecap="round" stroke-linejoin="round"/>
    <path fill-rule="evenodd" clipRule="evenodd" d="M62.7258 45.1303C52.0393 49.2167 43.1585 57.0011 37.7092 67.0849C34.6759 72.6981 32.7952 78.8611 32.1778 85.2116L31.8102 88.9926C31.1771 95.5035 31.9978 102.074 34.213 108.229C38.1809 119.254 46.3661 128.252 56.9679 133.242L61.1738 135.222C71.5195 140.092 83.2715 141.079 94.2843 138.002C110.586 133.448 123.248 120.587 127.547 104.217L128.104 102.098C91.8519 118.955 50.879 85.0383 62.7067 45.1949L62.7258 45.1303ZM62.2375 31.8392C70.4288 28.8913 78.493 36.5092 76.0155 44.8549L74.845 48.7982C65.7989 79.2712 98.8267 105.022 126.173 88.8168C134.218 84.0501 143.997 91.4282 141.622 100.472L139.794 107.433C134.352 128.154 118.325 144.433 97.6911 150.197C83.7515 154.091 68.8763 152.842 55.7813 146.678L51.5754 144.698C37.9352 138.278 27.4042 126.702 22.2992 112.516C19.4492 104.597 18.3933 96.1442 19.2077 87.7673L19.5753 83.9864C20.3561 75.9562 22.7342 68.1631 26.5699 61.0652C33.6505 47.9625 45.313 37.9301 59.3266 32.8868L62.2375 31.8392Z" fill="#0066B9"/>
    <path d="M133.876 101.815C132.727 100.559 129.873 98.8297 124.164 101.142C121.003 102.418 117.722 103.386 114.352 103.93C108.343 104.912 102.197 104.676 96.2783 103.235C90.3593 101.794 84.7872 99.1777 79.8918 95.5403C71.3835 89.287 65.0312 80.1382 62.6956 69.3111C61.4201 63.2545 61.3546 57.165 62.5745 51.1376C63.775 45.2808 61.5399 42.8108 60.1285 41.8874C58.6528 40.922 55.4345 39.8243 50.3121 43.3445C30.5724 57.0452 21.7589 81.6502 28.26 104.639C34.4702 126.246 53.781 141.765 75.6091 144.548C80.9037 145.235 86.2695 145.133 91.5325 144.246C92.3912 144.12 93.2499 143.995 94.0974 143.817C111.842 140.079 126.706 128.182 134.184 111.682C136.692 105.994 135.079 103.06 133.876 101.815Z" fill="#0066B9"/>
    <path d="M53.3749 129.333C52.7471 127.256 51.7087 125.445 50.3322 123.972C48.5618 121.968 46.2039 120.573 43.5946 119.988C42.2664 113.95 38.5475 109.604 33.2589 107.986C27.5115 106.199 20.8464 107.937 16.6687 112.308C12.998 116.148 11.7906 121.437 13.2154 127.063C8.3856 128.247 5.99486 132.279 5.72923 136.119C5.70508 136.385 5.70508 136.626 5.70508 136.868C5.70508 141.408 8.67539 146.503 15.2922 146.986H40.3587C43.7878 146.986 47.0721 145.706 49.5836 143.412C53.5198 139.959 54.9687 134.574 53.3749 129.333Z" fill="#CFE9FC"/>
    <path d="M118.227 101.685C118.77 99.8885 119.668 98.322 120.859 97.048C122.39 95.3146 124.429 94.1086 126.686 93.6019C127.834 88.3805 131.051 84.6212 135.625 83.2218C140.595 81.6763 146.36 83.1801 149.973 86.9603C153.148 90.2811 154.192 94.8551 152.96 99.7214C157.137 100.745 159.204 104.233 159.434 107.553C159.455 107.783 159.455 107.992 159.455 108.201C159.455 112.127 156.886 116.534 151.164 116.952H129.484C126.519 116.952 123.678 115.845 121.506 113.861C118.102 110.874 116.849 106.217 118.227 101.685Z" fill="#CFE9FC"/>
</svg>
