<svg width="15" height="14" viewBox="0 0 15 14" fill="none" xmlns="http://www.w3.org/2000/svg">
<path d="M7.37515 12.8334C7.37515 12.6677 7.441 12.5087 7.55821 12.3915C7.67542 12.2743 7.83439 12.2084 8.00015 12.2084H13.0002C13.0554 12.2084 13.1084 12.1865 13.1475 12.1474C13.1865 12.1083 13.2085 12.0553 13.2085 12.0001V2.00008C13.2085 1.94483 13.1865 1.89184 13.1475 1.85277C13.1084 1.8137 13.0554 1.79175 13.0002 1.79175H8.00015C7.83439 1.79175 7.67542 1.7259 7.55821 1.60869C7.441 1.49148 7.37515 1.33251 7.37515 1.16675C7.37515 1.00099 7.441 0.842016 7.55821 0.724806C7.67542 0.607596 7.83439 0.541748 8.00015 0.541748H13.0002C13.8052 0.541748 14.4585 1.19508 14.4585 2.00008V12.0001C14.4585 12.3869 14.3048 12.7578 14.0313 13.0313C13.7579 13.3048 13.3869 13.4584 13.0002 13.4584H8.00015C7.83439 13.4584 7.67542 13.3926 7.55821 13.2754C7.441 13.1581 7.37515 12.9992 7.37515 12.8334Z" fill="#ABADBA"/>
<path d="M11.0102 7.92925C11.0102 8.15026 10.9224 8.36222 10.7661 8.5185C10.6098 8.67478 10.3978 8.76258 10.1768 8.76258H6.13015C6.11071 9.05869 6.08682 9.3548 6.05849 9.65092L6.03349 9.90508C6.02418 10.0009 5.9919 10.093 5.93939 10.1737C5.88688 10.2543 5.81568 10.3211 5.73185 10.3684C5.64802 10.4157 5.55402 10.442 5.45783 10.4452C5.36164 10.4484 5.2661 10.4283 5.17932 10.3867C3.65555 9.65735 2.27638 8.65819 1.10849 7.43758L1.08349 7.41175C0.976032 7.29998 0.916016 7.15096 0.916016 6.99591C0.916016 6.84087 0.976032 6.69185 1.08349 6.58008L1.10849 6.55425C2.27638 5.33364 3.65555 4.33448 5.17932 3.60508C5.2661 3.56348 5.36164 3.54343 5.45783 3.54662C5.55402 3.54982 5.64802 3.57617 5.73185 3.62345C5.81568 3.67072 5.88688 3.73752 5.93939 3.81817C5.9919 3.89883 6.02418 3.99096 6.03349 4.08675L6.05849 4.34091C6.08682 4.63647 6.11071 4.93258 6.13015 5.22925H10.1768C10.3978 5.22925 10.6098 5.31705 10.7661 5.47333C10.9224 5.62961 11.0102 5.84157 11.0102 6.06258V7.92925Z" fill="#ABADBA"/>
</svg>
