<svg width="13" height="12" viewBox="0 0 13 12" fill="none"
    xmlns="http://www.w3.org/2000/svg">
    <g clip-path="url(#clip0_2150_20932)">
        <path d="M6.5 0C3.18629 0 0.5 2.68629 0.5 6C0.5 9.31371 3.18629 12 6.5 12C9.81371 12 12.5 9.31371 12.5 6C12.5 2.68629 9.81371 0 6.5 0ZM7.24905 3.50003C7.24905 3.91371 6.91369 4.24907 6.50001 4.24907C6.08633 4.24907 5.75098 3.91371 5.75098 3.50003C5.75098 3.08635 6.08633 2.751 6.50001 2.751C6.91369 2.751 7.24905 3.08635 7.24905 3.50003ZM6.5 5C6.77614 5 7 5.22386 7 5.5V8.5C7 8.77614 6.77614 9 6.5 9C6.22386 9 6 8.77614 6 8.5V5.5C6 5.22386 6.22386 5 6.5 5Z" fill="white"/>
    </g>
    <defs>
        <clipPath id="clip0_2150_20932">
            <rect width="12" height="12" fill="white" transform="translate(0.5)"/>
        </clipPath>
    </defs>
</svg>
