<svg width="12" height="12" viewBox="0 0 12 12" fill="none" xmlns="http://www.w3.org/2000/svg">
<path d="M10.4062 9.28125H2.34375V1.96875C2.34375 1.91719 2.30156 1.875 2.25 1.875H1.59375C1.54219 1.875 1.5 1.91719 1.5 1.96875V10.0312C1.5 10.0828 1.54219 10.125 1.59375 10.125H10.4062C10.4578 10.125 10.5 10.0828 10.5 10.0312V9.375C10.5 9.32344 10.4578 9.28125 10.4062 9.28125ZM3.1875 8.53125H9.46875C9.52031 8.53125 9.5625 8.48906 9.5625 8.4375V3.32812C9.5625 3.24375 9.46055 3.20273 9.40195 3.26133L6.9375 5.72578L5.46797 4.27266C5.45035 4.25521 5.42655 4.24542 5.40176 4.24542C5.37696 4.24542 5.35317 4.25521 5.33555 4.27266L3.1207 6.49453C3.1121 6.50315 3.10529 6.51339 3.10066 6.52465C3.09604 6.53591 3.09369 6.54798 3.09375 6.56016V8.4375C3.09375 8.48906 3.13594 8.53125 3.1875 8.53125Z" fill="white"/>
</svg>
