<svg width="12" height="12" viewBox="0 0 12 12" fill="none" xmlns="http://www.w3.org/2000/svg">
<path d="M6.61803 5.27708V3.08875C6.99194 3.13818 7.35712 3.23944 7.70302 3.38958L8.26304 3.66542L8.8168 2.54458L8.25553 2.26833C7.73762 2.0329 7.18436 1.88438 6.61803 1.82875V1H5.78342V1.82625C4.30741 1.95375 3.37432 2.78458 3.37432 4.01958C3.37432 5.57208 4.69885 6.04042 5.78342 6.34333V8.5375C5.18075 8.5053 4.58538 8.39047 4.01405 8.19625L3.42523 7.98417L3 9.15958L3.58882 9.37208C4.29622 9.61703 5.03543 9.75836 5.78342 9.79167V11H6.61803V9.78625C8.75671 9.60667 9 8.21292 9 7.59292C9 6.05375 7.69759 5.58042 6.61803 5.27708ZM4.62623 4.01958C4.62623 3.35292 5.29392 3.14458 5.78342 3.0825V5.0375C4.99054 4.78833 4.62623 4.55125 4.62623 4.01958ZM6.61803 8.53V6.58333C7.39296 6.82958 7.74809 7.06708 7.74809 7.5925C7.74809 7.82583 7.74475 8.40375 6.61803 8.53Z" fill="white"/>
</svg>
