<svg width="19" height="13" viewBox="0 0 19 13" fill="none" xmlns="http://www.w3.org/2000/svg">
<path d="M18.2484 2.15169C18.639 3.51888 18.639 6.44857 18.639 6.44857C18.639 6.44857 18.639 9.3457 18.2484 10.7454C18.0531 11.5267 17.4346 12.1126 16.6859 12.3079C15.2861 12.666 9.75228 12.666 9.75228 12.666C9.75228 12.666 4.18587 12.666 2.78613 12.3079C2.03743 12.1126 1.41895 11.5267 1.22363 10.7454C0.833008 9.3457 0.833008 6.44857 0.833008 6.44857C0.833008 6.44857 0.833008 3.51888 1.22363 2.15169C1.41895 1.37044 2.03743 0.751953 2.78613 0.556641C4.18587 0.166016 9.75228 0.166016 9.75228 0.166016C9.75228 0.166016 15.2861 0.166016 16.6859 0.556641C17.4346 0.751953 18.0531 1.37044 18.2484 2.15169ZM7.92936 9.08529L12.5518 6.44857L7.92936 3.81185V9.08529Z" fill="white"/>
</svg>
