<svg width="598" height="598" viewBox="0 0 598 598" fill="none" xmlns="http://www.w3.org/2000/svg">
<g filter="url(#filter0_d_12_39)">
<rect x="24" y="20" width="550" height="550" rx="275" fill="white"/>
<path d="M418 350.745V332.848C430.04 329.348 438.783 324.231 441.65 322.11L441.22 351.938C433.652 352.256 422.587 351.275 418 350.745Z" fill="#222222"/>
<path d="M449.82 351.938V306.202C457.044 304.611 468.023 298.116 472.61 295.067V346.768C468.138 350.268 455.553 351.673 449.82 351.938Z" fill="#222222"/>
<path d="M480.78 343.984V282.34C486.628 280.749 498.697 274.784 504 272V328.871C496.088 337.462 485.223 342.526 480.78 343.984Z" fill="#222222"/>
<path d="M286.843 155C217.243 168.2 205.177 126.5 207.843 104C188.243 151.6 221.677 168.167 240.843 170.5L206.843 196.5L223.843 222.5C230.01 221.333 246.543 221.2 263.343 230C280.143 238.8 272.677 264.667 266.843 276.5C258.51 291.5 234.5 323.313 201.343 331.5C161 341.461 131.991 332.572 121.343 323C113.507 315.956 107.747 301.855 106.523 293.124C106.391 292.182 107.005 291.321 107.875 290.935C111.634 289.271 117.299 284.855 118.343 276.5C119.379 268.215 115.027 255.609 111.779 248.133C111.38 247.214 110.019 247.432 109.831 248.416C108.219 256.823 104.706 260.725 103.343 262.5C91.1855 278.342 94.7783 287.482 98.8072 290.78C99.4053 291.27 99.7997 292 99.7544 292.771C98.2555 318.309 114.792 333.654 132.5 343C156.595 355.717 181 352.751 201.343 349.5C221.687 346.249 236.843 338.5 248 331.5C251.5 329.304 277.5 317 286.5 276.5C298.488 222.552 257.343 209.167 232.343 207.5L227.343 194.5L286.843 155Z" fill="#222222"/>
<path d="M292 193.5C347.2 172.3 354.333 125 351 104C362.333 121.333 375.7 161.6 338.5 184C374.667 196.833 439.8 243.3 411 326.5C415.8 232.5 333.667 198.667 292 193.5Z" fill="#222222"/>
<path d="M133.538 405.483C208.922 372.532 308.192 329.14 452.084 385.893C237.084 205.9 96.0844 295.9 132.584 405.9L133.538 405.483Z" fill="#222222"/>
<path d="M140.304 476.199V449.559H150.852C153.036 449.559 154.956 449.943 156.612 450.711C158.268 451.455 159.636 452.463 160.716 453.735C161.82 455.007 162.648 456.435 163.2 458.019C163.752 459.603 164.028 461.223 164.028 462.879C164.028 464.535 163.752 466.155 163.2 467.739C162.648 469.323 161.82 470.751 160.716 472.023C159.636 473.295 158.268 474.315 156.612 475.083C154.956 475.827 153.036 476.199 150.852 476.199H140.304ZM150.564 455.031H146.532V470.655H150.564C152.22 470.655 153.576 470.271 154.632 469.503C155.712 468.735 156.504 467.763 157.008 466.587C157.512 465.387 157.764 464.127 157.764 462.807C157.764 461.535 157.512 460.299 157.008 459.099C156.504 457.899 155.712 456.927 154.632 456.183C153.576 455.415 152.22 455.031 150.564 455.031ZM175.289 456.759C176.537 456.759 177.545 456.963 178.313 457.371C179.105 457.779 179.693 458.199 180.077 458.631C180.485 459.039 180.713 459.291 180.761 459.387H181.049V457.119H187.205V476.199H181.049V473.931H180.761C180.713 474.027 180.485 474.291 180.077 474.723C179.693 475.155 179.105 475.575 178.313 475.983C177.545 476.367 176.537 476.559 175.289 476.559C173.897 476.559 172.685 476.283 171.653 475.731C170.621 475.155 169.757 474.399 169.061 473.463C168.365 472.503 167.849 471.435 167.513 470.259C167.177 469.083 167.009 467.883 167.009 466.659C167.009 465.435 167.177 464.235 167.513 463.059C167.849 461.883 168.365 460.827 169.061 459.891C169.757 458.931 170.621 458.175 171.653 457.623C172.685 457.047 173.897 456.759 175.289 456.759ZM177.233 461.691C176.345 461.691 175.601 461.943 175.001 462.447C174.401 462.927 173.957 463.551 173.669 464.319C173.381 465.063 173.237 465.843 173.237 466.659C173.237 467.475 173.381 468.267 173.669 469.035C173.957 469.779 174.401 470.403 175.001 470.907C175.601 471.387 176.345 471.627 177.233 471.627C178.121 471.627 178.853 471.387 179.429 470.907C180.029 470.403 180.473 469.779 180.761 469.035C181.073 468.267 181.229 467.475 181.229 466.659C181.229 465.843 181.073 465.063 180.761 464.319C180.473 463.551 180.029 462.927 179.429 462.447C178.853 461.943 178.121 461.691 177.233 461.691ZM197.246 476.559C195.854 476.559 194.726 476.271 193.862 475.695C193.022 475.095 192.398 474.315 191.99 473.355C191.582 472.371 191.378 471.291 191.378 470.115V457.119H197.462V468.747C197.462 469.563 197.678 470.235 198.11 470.763C198.542 471.291 199.19 471.555 200.054 471.555C201.038 471.555 201.734 471.231 202.142 470.583C202.574 469.911 202.79 469.155 202.79 468.315V457.119H208.946V476.199H202.79V473.499H202.574C202.094 474.339 201.422 475.059 200.558 475.659C199.694 476.259 198.59 476.559 197.246 476.559ZM221.967 476.559C220.335 476.559 219.039 476.307 218.079 475.803C217.143 475.299 216.459 474.675 216.027 473.931C215.595 473.163 215.319 472.395 215.199 471.627C215.079 470.835 215.019 470.163 215.019 469.611V462.015H211.851V457.119H215.019V452.403H221.175V457.119H225.063V462.015H221.175V469.431C221.175 470.151 221.367 470.727 221.751 471.159C222.159 471.567 222.843 471.771 223.803 471.771C224.211 471.771 224.571 471.747 224.883 471.699C225.195 471.627 225.351 471.591 225.351 471.591V476.199C225.351 476.199 225.003 476.259 224.307 476.379C223.635 476.499 222.855 476.559 221.967 476.559ZM234.582 476.559C233.19 476.559 232.062 476.271 231.198 475.695C230.358 475.095 229.734 474.315 229.326 473.355C228.918 472.371 228.714 471.291 228.714 470.115V457.119H234.798V468.747C234.798 469.563 235.014 470.235 235.446 470.763C235.878 471.291 236.526 471.555 237.39 471.555C238.374 471.555 239.07 471.231 239.478 470.583C239.91 469.911 240.126 469.155 240.126 468.315V457.119H246.282V476.199H240.126V473.499H239.91C239.43 474.339 238.758 475.059 237.894 475.659C237.03 476.259 235.926 476.559 234.582 476.559ZM262.399 476.559C261.175 476.559 260.167 476.355 259.375 475.947C258.583 475.539 257.995 475.131 257.611 474.723C257.227 474.291 257.011 474.027 256.963 473.931H256.675V476.199H250.519V448.839H256.675V459.387H256.963C257.011 459.291 257.227 459.027 257.611 458.595C257.995 458.163 258.583 457.755 259.375 457.371C260.167 456.963 261.175 456.759 262.399 456.759C263.815 456.759 265.039 457.047 266.071 457.623C267.103 458.175 267.955 458.931 268.627 459.891C269.323 460.827 269.839 461.883 270.175 463.059C270.535 464.235 270.715 465.435 270.715 466.659C270.715 467.883 270.535 469.083 270.175 470.259C269.839 471.435 269.323 472.503 268.627 473.463C267.955 474.399 267.103 475.155 266.071 475.731C265.039 476.283 263.815 476.559 262.399 476.559ZM260.491 471.627C261.379 471.627 262.123 471.387 262.723 470.907C263.323 470.403 263.767 469.779 264.055 469.035C264.343 468.267 264.487 467.475 264.487 466.659C264.487 465.843 264.343 465.063 264.055 464.319C263.767 463.551 263.323 462.927 262.723 462.447C262.123 461.943 261.379 461.691 260.491 461.691C259.603 461.691 258.859 461.943 258.259 462.447C257.659 462.927 257.215 463.551 256.927 464.319C256.639 465.063 256.495 465.843 256.495 466.659C256.495 467.475 256.639 468.267 256.927 469.035C257.215 469.779 257.659 470.403 258.259 470.907C258.859 471.387 259.603 471.627 260.491 471.627ZM283.962 476.559C282.258 476.559 280.782 476.283 279.534 475.731C278.286 475.155 277.242 474.399 276.402 473.463C275.586 472.503 274.974 471.435 274.566 470.259C274.182 469.083 273.99 467.871 273.99 466.623C273.99 465.423 274.182 464.235 274.566 463.059C274.95 461.883 275.538 460.827 276.33 459.891C277.122 458.931 278.13 458.175 279.354 457.623C280.602 457.047 282.078 456.759 283.782 456.759C285.606 456.759 287.202 457.155 288.57 457.947C289.962 458.715 291.042 459.855 291.81 461.367C292.602 462.855 292.998 464.667 292.998 466.803V468.243H280.182C280.254 469.227 280.602 470.091 281.226 470.835C281.874 471.555 282.786 471.915 283.962 471.915C284.85 471.915 285.522 471.759 285.978 471.447C286.458 471.111 286.782 470.775 286.95 470.439C287.118 470.103 287.202 469.935 287.202 469.935H292.854C292.854 469.935 292.794 470.163 292.674 470.619C292.554 471.051 292.326 471.603 291.99 472.275C291.654 472.923 291.162 473.583 290.514 474.255C289.866 474.903 289.002 475.455 287.922 475.911C286.866 476.343 285.546 476.559 283.962 476.559ZM280.146 464.679H287.094C287.046 463.551 286.698 462.699 286.05 462.123C285.426 461.547 284.634 461.259 283.674 461.259C282.738 461.259 281.934 461.547 281.262 462.123C280.614 462.699 280.242 463.551 280.146 464.679ZM296.389 476.199V457.119H302.545V459.819H302.725C302.965 459.435 303.289 459.003 303.697 458.523C304.129 458.043 304.693 457.635 305.389 457.299C306.109 456.939 306.997 456.759 308.053 456.759C309.589 456.759 310.813 457.107 311.725 457.803C312.661 458.499 313.333 459.387 313.741 460.467C314.149 461.523 314.353 462.615 314.353 463.743V476.199H308.197V464.895C308.197 464.079 307.981 463.359 307.549 462.735C307.117 462.087 306.409 461.763 305.425 461.763C304.345 461.763 303.589 462.123 303.157 462.843C302.749 463.539 302.545 464.307 302.545 465.147V476.199H296.389ZM323.205 476.199L316.293 457.119H322.413L326.481 469.359L330.405 457.119H336.525L329.577 476.199H323.205ZM345.007 476.559C343.615 476.559 342.487 476.271 341.623 475.695C340.783 475.095 340.159 474.315 339.751 473.355C339.343 472.371 339.139 471.291 339.139 470.115V457.119H345.223V468.747C345.223 469.563 345.439 470.235 345.871 470.763C346.303 471.291 346.951 471.555 347.815 471.555C348.799 471.555 349.495 471.231 349.903 470.583C350.335 469.911 350.551 469.155 350.551 468.315V457.119H356.707V476.199H350.551V473.499H350.335C349.855 474.339 349.183 475.059 348.319 475.659C347.455 476.259 346.351 476.559 345.007 476.559ZM360.585 476.199V457.119H366.741V459.819H366.921C367.161 459.435 367.485 459.003 367.893 458.523C368.325 458.043 368.889 457.635 369.585 457.299C370.305 456.939 371.193 456.759 372.249 456.759C373.785 456.759 375.009 457.107 375.921 457.803C376.857 458.499 377.529 459.387 377.937 460.467C378.345 461.523 378.549 462.615 378.549 463.743V476.199H372.393V464.895C372.393 464.079 372.177 463.359 371.745 462.735C371.313 462.087 370.605 461.763 369.621 461.763C368.541 461.763 367.785 462.123 367.353 462.843C366.945 463.539 366.741 464.307 366.741 465.147V476.199H360.585ZM392.143 483.867C390.343 483.867 388.855 483.639 387.679 483.183C386.503 482.751 385.567 482.199 384.871 481.527C384.199 480.879 383.707 480.219 383.395 479.547C383.083 478.899 382.879 478.347 382.783 477.891C382.711 477.459 382.675 477.243 382.675 477.243H388.615C388.615 477.243 388.687 477.399 388.831 477.711C388.999 478.023 389.323 478.335 389.803 478.647C390.307 478.983 391.063 479.151 392.071 479.151C393.367 479.151 394.351 478.779 395.023 478.035C395.719 477.291 396.067 476.259 396.067 474.939V472.959H395.779C395.539 473.343 395.179 473.751 394.699 474.183C394.243 474.615 393.655 474.987 392.935 475.299C392.215 475.587 391.351 475.731 390.343 475.731C388.951 475.731 387.727 475.467 386.671 474.939C385.639 474.411 384.763 473.691 384.043 472.779C383.347 471.867 382.819 470.847 382.459 469.719C382.123 468.591 381.955 467.439 381.955 466.263C381.955 465.063 382.123 463.899 382.459 462.771C382.819 461.643 383.347 460.635 384.043 459.747C384.763 458.835 385.639 458.115 386.671 457.587C387.727 457.035 388.951 456.759 390.343 456.759C391.351 456.759 392.215 456.915 392.935 457.227C393.655 457.515 394.255 457.875 394.735 458.307C395.215 458.739 395.563 459.147 395.779 459.531H396.067V457.119H402.223V474.939C402.223 476.475 401.863 477.915 401.143 479.259C400.447 480.627 399.355 481.731 397.867 482.571C396.403 483.435 394.495 483.867 392.143 483.867ZM392.179 470.943C393.091 470.943 393.847 470.715 394.447 470.259C395.047 469.803 395.491 469.215 395.779 468.495C396.091 467.775 396.247 467.031 396.247 466.263C396.247 465.447 396.091 464.691 395.779 463.995C395.491 463.275 395.047 462.687 394.447 462.231C393.847 461.775 393.091 461.547 392.179 461.547C391.291 461.547 390.547 461.775 389.947 462.231C389.347 462.687 388.891 463.275 388.579 463.995C388.267 464.691 388.111 465.447 388.111 466.263C388.111 467.031 388.267 467.775 388.579 468.495C388.891 469.215 389.347 469.803 389.947 470.259C390.547 470.715 391.291 470.943 392.179 470.943ZM410.504 476.559C409.52 476.559 408.716 476.235 408.092 475.587C407.492 474.915 407.192 474.135 407.192 473.247C407.192 472.311 407.492 471.531 408.092 470.907C408.716 470.259 409.52 469.935 410.504 469.935C411.464 469.935 412.256 470.259 412.88 470.907C413.504 471.531 413.816 472.311 413.816 473.247C413.816 474.159 413.504 474.939 412.88 475.587C412.256 476.235 411.464 476.559 410.504 476.559ZM424.42 476.199L417.508 457.119H423.628L427.696 469.359L431.62 457.119H437.74L430.792 476.199H424.42ZM440.354 476.199V457.119H446.51V459.819H446.69C446.93 459.435 447.254 459.003 447.662 458.523C448.094 458.043 448.658 457.635 449.354 457.299C450.074 456.939 450.962 456.759 452.018 456.759C453.554 456.759 454.778 457.107 455.69 457.803C456.626 458.499 457.298 459.387 457.706 460.467C458.114 461.523 458.318 462.615 458.318 463.743V476.199H452.162V464.895C452.162 464.079 451.946 463.359 451.514 462.735C451.082 462.087 450.374 461.763 449.39 461.763C448.31 461.763 447.554 462.123 447.122 462.843C446.714 463.539 446.51 464.307 446.51 465.147V476.199H440.354Z" fill="#222222"/>
</g>
<defs>
<filter id="filter0_d_12_39" x="0" y="0" width="598" height="598" filterUnits="userSpaceOnUse" color-interpolation-filters="sRGB">
<feFlood flood-opacity="0" result="BackgroundImageFix"/>
<feColorMatrix in="SourceAlpha" type="matrix" values="0 0 0 0 0 0 0 0 0 0 0 0 0 0 0 0 0 0 127 0" result="hardAlpha"/>
<feOffset dy="4"/>
<feGaussianBlur stdDeviation="12"/>
<feComposite in2="hardAlpha" operator="out"/>
<feColorMatrix type="matrix" values="0 0 0 0 0.847059 0 0 0 0 0.823529 0 0 0 0 0.988235 0 0 0 0.64 0"/>
<feBlend mode="normal" in2="BackgroundImageFix" result="effect1_dropShadow_12_39"/>
<feBlend mode="normal" in="SourceGraphic" in2="effect1_dropShadow_12_39" result="shape"/>
</filter>
</defs>
</svg>
