<svg width="28" height="30" viewBox="0 0 28 30" fill="none"
    xmlns="http://www.w3.org/2000/svg">
    <path fillRule="evenodd" clipRule="evenodd" d="M1.69871 5.56138C1.69994 5.57221 1.70185 5.58674 1.70476 5.60468C1.71548 5.67074 1.73974 5.7825 1.79395 5.92563C1.90048 6.20695 2.13047 6.63066 2.63804 7.07742C3.65923 7.97625 5.8995 9.04588 10.7475 9.04588C15.5954 9.04588 17.8357 7.97625 18.8569 7.07742C19.3645 6.63066 19.5944 6.20695 19.701 5.92563C19.7552 5.7825 19.7794 5.67074 19.7902 5.60468C19.7931 5.58638 19.7951 5.57163 19.7963 5.56073C19.7958 5.55657 19.7952 5.55184 19.7946 5.54656L21.4948 5.54517L21.4949 5.55143L21.4949 5.55655L21.4949 5.55869L21.4949 5.56073V14.2736H20.6464C21.4949 14.2736 21.4949 14.2756 21.4949 14.2756L21.4949 14.2778L21.4949 14.2824L21.4947 14.2929L21.494 14.3189C21.4933 14.3384 21.4921 14.3622 21.49 14.3901C21.4857 14.4458 21.478 14.518 21.464 14.604C21.4361 14.7762 21.383 15.0048 21.2826 15.2701C21.0798 15.8056 20.6911 16.471 19.9613 17.1134C18.5077 18.3927 15.7985 19.5013 10.7475 19.5013C5.87979 19.5013 3.18699 18.4718 1.69697 17.252V22.9696C1.69771 22.9788 1.69975 22.9996 1.70476 23.0304C1.71548 23.0965 1.73974 23.2082 1.79395 23.3514C1.90048 23.6327 2.13047 24.0564 2.63804 24.5032C3.65923 25.402 5.8995 26.4716 10.7475 26.4716C11.2161 26.4716 11.5959 26.8617 11.5959 27.3429C11.5959 27.8241 11.2161 28.2142 10.7475 28.2142C5.69645 28.2142 2.98722 27.1056 1.53367 25.8262C0.803873 25.1839 0.41517 24.5185 0.212364 23.983C0.111898 23.7177 0.0588247 23.4891 0.0308785 23.3169C0.016907 23.2308 0.00919453 23.1587 0.00497155 23.103C0.00285926 23.0751 0.00161684 23.0512 0.000902317 23.0317L0.000183245 23.0058L4.05432e-05 22.9953L9.4404e-06 22.9907L0 22.9885C0 22.9885 0 22.9865 0.848484 22.9865H0V5.56277L0.848449 5.56073L1.69871 5.56138ZM1.69697 14.2567V8.53908C3.18699 9.75889 5.87979 10.7885 10.7475 10.7885C15.6151 10.7885 18.3079 9.75889 19.798 8.53908V14.2567C19.7972 14.2659 19.7952 14.2867 19.7902 14.3176C19.7794 14.3836 19.7552 14.4954 19.701 14.6385C19.5944 14.9198 19.3645 15.3435 18.8569 15.7903C17.8357 16.6891 15.5954 17.7588 10.7475 17.7588C5.8995 17.7588 3.65923 16.6891 2.63804 15.7903C2.13047 15.3435 1.90048 14.9198 1.79395 14.6385C1.73974 14.4954 1.71548 14.3836 1.70476 14.3176C1.69975 14.2867 1.69771 14.2659 1.69697 14.2567Z" fill="#ABADBA"/>
    <path d="M1.70055 5.54519L0.141379 6.2868L0.000132295 5.54519L0.000183245 5.54144L0.000902317 5.51547C0.00161684 5.49597 0.00285926 5.47213 0.00497155 5.44424C0.00919453 5.38849 0.016907 5.31638 0.0308785 5.2303C0.0588247 5.05812 0.111898 4.82953 0.212364 4.56424C0.41517 4.02873 0.803873 3.36333 1.53367 2.72098C2.98722 1.44159 5.69645 0.333008 10.7475 0.333008C15.7985 0.333008 18.5077 1.44159 19.9613 2.72098C20.6911 3.36333 21.0798 4.02873 21.2826 4.56424C21.383 4.82953 21.4361 5.05812 21.464 5.2303C21.478 5.31638 21.4857 5.38849 21.49 5.44424C21.4921 5.47213 21.4933 5.49597 21.494 5.51547L21.4947 5.54144L21.4948 5.54517L19.7946 5.54656C19.7935 5.53835 19.7919 5.52747 19.7902 5.51678C19.7794 5.45072 19.7552 5.33896 19.701 5.19583C19.5944 4.91452 19.3645 4.4908 18.8569 4.04404C17.8357 3.14521 15.5954 2.07558 10.7475 2.07558C5.8995 2.07558 3.65923 3.14521 2.63804 4.04404C2.13047 4.4908 1.90048 4.91452 1.79395 5.19583C1.73974 5.33896 1.71548 5.45072 1.70476 5.51678C1.70302 5.52748 1.70164 5.53697 1.70055 5.54519Z" fill="#ABADBA"/>
    <path d="M21.4949 25.3099L21.4978 25.3099H25.1031L22.3091 28.179C21.9778 28.5192 21.9778 29.0709 22.3091 29.4111C22.6405 29.7514 23.1777 29.7514 23.5091 29.4111L27.7515 25.0547C28.0828 24.7144 28.0828 24.1628 27.7515 23.8225L23.5091 19.4661C23.1777 19.1258 22.6405 19.1258 22.3091 19.4661C21.9778 19.8063 21.9778 20.358 22.3091 20.6983L25.1031 23.5673H18.6667L18.664 23.5673H15.0585L17.8524 20.6983C18.1838 20.358 18.1838 19.8063 17.8524 19.4661C17.5211 19.1258 16.9839 19.1258 16.6525 19.4661L12.4101 23.8225C12.0787 24.1628 12.0787 24.7145 12.4101 25.0547L16.6525 29.4111C16.9839 29.7514 17.5211 29.7514 17.8524 29.4111C18.1838 29.0709 18.1838 28.5192 17.8524 28.179L15.0585 25.3099H21.4949Z" fill="#ABADBA"/>
</svg>
